<svg width="359" height="232" viewBox="0 0 359 232" fill="none" xmlns="http://www.w3.org/2000/svg">
<g filter="url(#filter0_d_137_2605)">
<rect x="16" y="8" width="327" height="200" rx="12" fill="url(#paint0_linear_137_2605)"/>
<path d="M180 78C180.995 78 181.948 78.3951 182.652 79.0983C183.355 79.8016 183.75 80.7554 183.75 81.75V104.25H206.25C207.245 104.25 208.198 104.645 208.902 105.348C209.605 106.052 210 107.005 210 108C210 108.995 209.605 109.948 208.902 110.652C208.198 111.355 207.245 111.75 206.25 111.75H183.75V134.25C183.75 135.245 183.355 136.198 182.652 136.902C181.948 137.605 180.995 138 180 138C179.005 138 178.052 137.605 177.348 136.902C176.645 136.198 176.25 135.245 176.25 134.25V111.75H153.75C152.755 111.75 151.802 111.355 151.098 110.652C150.395 109.948 150 108.995 150 108C150 107.005 150.395 106.052 151.098 105.348C151.802 104.645 152.755 104.25 153.75 104.25H176.25V81.75C176.25 80.7554 176.645 79.8016 177.348 79.0983C178.052 78.3951 179.005 78 180 78V78Z" fill="#8F8D86"/>
</g>
<defs>
<filter id="filter0_d_137_2605" x="0" y="0" width="359" height="232" filterUnits="userSpaceOnUse" color-interpolation-filters="sRGB">
<feFlood flood-opacity="0" result="BackgroundImageFix"/>
<feColorMatrix in="SourceAlpha" type="matrix" values="0 0 0 0 0 0 0 0 0 0 0 0 0 0 0 0 0 0 127 0" result="hardAlpha"/>
<feOffset dy="8"/>
<feGaussianBlur stdDeviation="8"/>
<feColorMatrix type="matrix" values="0 0 0 0 0.101076 0 0 0 0 0.149766 0 0 0 0 0.295833 0 0 0 0.2 0"/>
<feBlend mode="normal" in2="BackgroundImageFix" result="effect1_dropShadow_137_2605"/>
<feBlend mode="normal" in="SourceGraphic" in2="effect1_dropShadow_137_2605" result="shape"/>
</filter>
<linearGradient id="paint0_linear_137_2605" x1="179.5" y1="8" x2="179.5" y2="208" gradientUnits="userSpaceOnUse">
<stop stop-color="#FEFEFE"/>
<stop offset="1" stop-color="#F9F9F9"/>
</linearGradient>
</defs>
</svg>
