<svg width="18" height="21" viewBox="0 0 18 21" fill="none" xmlns="http://www.w3.org/2000/svg">
<path d="M16.6651 15.81C16.3882 16.4555 16.0461 17.0711 15.6441 17.647C15.1071 18.414 14.6661 18.944 14.3281 19.239C13.8031 19.721 13.2391 19.969 12.6361 19.983C12.2041 19.983 11.6821 19.86 11.0741 19.61C10.4641 19.361 9.90414 19.239 9.39114 19.239C8.85414 19.239 8.27814 19.361 7.66114 19.61C7.04514 19.86 6.54714 19.991 6.16614 20.003C5.58914 20.028 5.01214 19.774 4.43714 19.239C4.07014 18.919 3.61114 18.369 3.06014 17.591C2.47014 16.762 1.98514 15.797 1.60514 14.7C1.19814 13.513 0.994141 12.365 0.994141 11.253C0.994141 9.98005 1.26914 8.88105 1.82014 7.96105C2.23689 7.23851 2.83269 6.63548 3.55014 6.21005C4.25761 5.78572 5.06523 5.55723 5.89014 5.54805C6.35014 5.54805 6.95314 5.69005 7.70014 5.97005C8.44714 6.25005 8.92714 6.39205 9.13614 6.39205C9.29414 6.39205 9.82514 6.22505 10.7291 5.89405C11.5821 5.58705 12.3021 5.46005 12.8921 5.51005C14.4921 5.63905 15.6931 6.26905 16.4921 7.40505C15.0621 8.27205 14.3551 9.48505 14.3691 11.042C14.3811 12.255 14.8221 13.264 15.6861 14.065C16.0681 14.4306 16.5138 14.7231 17.0011 14.928C16.8951 15.235 16.7831 15.528 16.6651 15.81ZM12.9981 1.37905C12.9981 2.32905 12.6501 3.21705 11.9591 4.03805C11.1231 5.01405 10.1131 5.57905 9.01814 5.49005C9.00382 5.37059 8.99681 5.25036 8.99714 5.13005C8.99714 4.21705 9.39314 3.24105 10.1001 2.44205C10.4521 2.03805 10.9001 1.70105 11.4431 1.43305C11.9851 1.16905 12.4971 1.02305 12.9791 0.998047C12.9921 1.12605 12.9981 1.25305 12.9981 1.37905Z" fill="#DB8057"/>
</svg>
