<svg width="194" height="176" viewBox="0 0 194 176" fill="none" xmlns="http://www.w3.org/2000/svg">
<g filter="url(#filter0_d_241:6877)">
<rect x="16" width="160" height="140" rx="12" fill="#869EBC"/>
<path d="M78.6562 29.6172H78.3914C78.15 29.6172 77.9531 29.8141 77.9531 30.0555V54.018C77.9531 54.1328 78.0469 54.2266 78.1617 54.2266H89.8125C90.9 54.2266 91.9688 54.5102 92.9133 55.0469L94.3547 55.8672H98.1352L99.5766 55.0469C100.521 54.5102 101.59 54.2266 102.677 54.2266H114.08C114.321 54.2266 114.518 54.0297 114.518 53.7883V30.0555C114.518 29.8141 114.321 29.6172 114.08 29.6172H113.812" stroke="white" stroke-width="1.64062" stroke-miterlimit="10" stroke-linecap="round"/>
<path d="M96.1828 32.2562C96.1828 31.1992 95.8617 30.168 95.2617 29.2984C94.2891 27.8852 92.6812 27.0391 90.9656 27.0391H80.9062C80.6977 27.0391 80.5312 27.2078 80.5312 27.4141V51.4633C80.5312 51.5664 80.6133 51.6484 80.7164 51.6484H93.0445C93.4969 51.6484 93.9234 51.8664 94.1859 52.2344L94.6055 52.8203H97.8492L98.2687 52.2344C98.5336 51.8664 98.9578 51.6484 99.4102 51.6484H111.558C111.766 51.6484 111.933 51.4797 111.933 51.2734V27.1797C111.933 26.9711 111.764 26.8047 111.558 26.8047H101.372C99.6562 26.8047 98.0484 27.6484 97.0758 29.0641C96.4758 29.9336 96.1547 30.9648 96.1547 32.0219" stroke="white" stroke-width="1.64062" stroke-miterlimit="10" stroke-linecap="round"/>
<path d="M94.125 44.4245V37.5175C94.125 37.1284 94.5445 36.8846 94.8844 37.0768L100.934 40.5292C101.276 40.7237 101.276 41.2159 100.934 41.4104L94.8844 44.8628C94.5445 45.0573 94.125 44.8135 94.125 44.4245Z" stroke="white" stroke-width="1.64062" stroke-miterlimit="10" stroke-linecap="round"/>
<path d="M80.5312 66.4141H81.2344" stroke="white" stroke-width="1.64062" stroke-miterlimit="10" stroke-linecap="round"/>
<path d="M84.75 66.4141H85.4531" stroke="white" stroke-width="1.64062" stroke-miterlimit="10" stroke-linecap="round"/>
<path d="M89.2031 66.4141H89.6719" stroke="white" stroke-width="1.64062" stroke-miterlimit="10" stroke-linecap="round"/>
<path d="M93.4219 66.4141H94.125" stroke="white" stroke-width="1.64062" stroke-miterlimit="10" stroke-linecap="round"/>
<path d="M97.6406 66.4141H98.3438" stroke="white" stroke-width="1.64062" stroke-miterlimit="10" stroke-linecap="round"/>
<path d="M102.094 66.4141H102.797" stroke="white" stroke-width="1.64062" stroke-miterlimit="10" stroke-linecap="round"/>
<path d="M106.312 66.4141H107.016" stroke="white" stroke-width="1.64062" stroke-miterlimit="10" stroke-linecap="round"/>
<path d="M110.531 66.4141H111.234" stroke="white" stroke-width="1.64062" stroke-miterlimit="10" stroke-linecap="round"/>
<path d="M80.5312 69.9297H81.2344" stroke="white" stroke-width="1.64062" stroke-miterlimit="10" stroke-linecap="round"/>
<path d="M84.75 69.9297H85.4531" stroke="white" stroke-width="1.64062" stroke-miterlimit="10" stroke-linecap="round"/>
<path d="M89.2031 69.9297H89.6719" stroke="white" stroke-width="1.64062" stroke-miterlimit="10" stroke-linecap="round"/>
<path d="M93.4219 69.9297H94.125" stroke="white" stroke-width="1.64062" stroke-miterlimit="10" stroke-linecap="round"/>
<path d="M97.6406 69.9297H98.3438" stroke="white" stroke-width="1.64062" stroke-miterlimit="10" stroke-linecap="round"/>
<path d="M102.094 69.9297H102.797" stroke="white" stroke-width="1.64062" stroke-miterlimit="10" stroke-linecap="round"/>
<path d="M106.312 69.9297H107.016" stroke="white" stroke-width="1.64062" stroke-miterlimit="10" stroke-linecap="round"/>
<path d="M110.531 69.9297H111.234" stroke="white" stroke-width="1.64062" stroke-miterlimit="10" stroke-linecap="round"/>
<path d="M80.5312 73.6797H81.2344" stroke="white" stroke-width="1.64062" stroke-miterlimit="10" stroke-linecap="round"/>
<path d="M84.75 73.6797H85.4531" stroke="white" stroke-width="1.64062" stroke-miterlimit="10" stroke-linecap="round"/>
<path d="M89.2031 73.6797H102.797" stroke="white" stroke-width="1.64062" stroke-miterlimit="10" stroke-linecap="round"/>
<path d="M106.312 73.6797H107.016" stroke="white" stroke-width="1.64062" stroke-miterlimit="10" stroke-linecap="round"/>
<path d="M110.531 73.6797H111.234" stroke="white" stroke-width="1.64062" stroke-miterlimit="10" stroke-linecap="round"/>
<path d="M99.5156 62.6641H115.008C115.772 62.6641 116.391 63.2828 116.391 64.0469V75.8125C116.391 76.5766 115.772 77.1953 115.008 77.1953H76.9922C76.2281 77.1953 75.6094 76.5766 75.6094 75.8125V64.0469C75.6094 63.2828 76.2281 62.6641 76.9922 62.6641H92.6039C94.4602 62.6641 95.9719 61.1758 96 59.3195L96.0234 58.4453" stroke="white" stroke-width="1.64062" stroke-miterlimit="10" stroke-linecap="round"/>
<path d="M32.9957 112L34.0639 108.92H38.6094L39.6719 112H41.5355L37.348 100.364H35.3196L31.1321 112H32.9957ZM34.5753 107.443L36.2912 102.477H36.3821L38.098 107.443H34.5753ZM43.0795 112H44.7784V106.67C44.7784 105.528 45.6591 104.705 46.8636 104.705C47.2159 104.705 47.6136 104.767 47.75 104.807V103.182C47.5795 103.159 47.2443 103.142 47.0284 103.142C46.0057 103.142 45.1307 103.722 44.8125 104.659H44.7216V103.273H43.0795V112ZM53.8097 103.273H52.0199V101.182H50.321V103.273H49.0426V104.636H50.321V109.79C50.3153 111.375 51.5256 112.142 52.8665 112.114C53.4062 112.108 53.7699 112.006 53.9688 111.932L53.6619 110.528C53.5483 110.551 53.3381 110.602 53.0653 110.602C52.5142 110.602 52.0199 110.42 52.0199 109.438V104.636H53.8097V103.273ZM55.6889 112H57.3878V103.273H55.6889V112ZM56.5469 101.926C57.1321 101.926 57.6207 101.472 57.6207 100.915C57.6207 100.358 57.1321 99.8977 56.5469 99.8977C55.956 99.8977 55.473 100.358 55.473 100.915C55.473 101.472 55.956 101.926 56.5469 101.926ZM63.3494 112.176C65.4119 112.176 66.7472 110.938 66.9347 109.239H65.2812C65.0653 110.182 64.3324 110.739 63.3608 110.739C61.9233 110.739 60.9972 109.54 60.9972 107.636C60.9972 105.767 61.9403 104.591 63.3608 104.591C64.4403 104.591 65.0994 105.273 65.2812 106.091H66.9347C66.7528 104.33 65.3153 103.159 63.3324 103.159C60.8722 103.159 59.2812 105.011 59.2812 107.676C59.2812 110.307 60.8153 112.176 63.3494 112.176ZM70.4503 100.364H68.7514V112H70.4503V100.364ZM76.4972 112.176C78.4006 112.176 79.7472 111.239 80.1335 109.818L78.5256 109.528C78.2188 110.352 77.4801 110.773 76.5142 110.773C75.0597 110.773 74.0824 109.83 74.0369 108.148H80.2415V107.545C80.2415 104.392 78.3551 103.159 76.3778 103.159C73.946 103.159 72.3438 105.011 72.3438 107.693C72.3438 110.403 73.9233 112.176 76.4972 112.176ZM74.0426 106.875C74.1108 105.636 75.0085 104.562 76.3892 104.562C77.7074 104.562 78.571 105.54 78.5767 106.875H74.0426ZM88.6662 105.403C88.3139 104.045 87.2514 103.159 85.3651 103.159C83.3935 103.159 81.9957 104.199 81.9957 105.744C81.9957 106.983 82.7457 107.807 84.3821 108.17L85.8594 108.494C86.7003 108.682 87.0923 109.057 87.0923 109.602C87.0923 110.278 86.3707 110.807 85.2571 110.807C84.2401 110.807 83.5866 110.369 83.3821 109.511L81.7401 109.761C82.0241 111.307 83.3082 112.176 85.2685 112.176C87.3764 112.176 88.8366 111.057 88.8366 109.477C88.8366 108.244 88.0526 107.483 86.4503 107.114L85.0639 106.795C84.1037 106.568 83.6889 106.244 83.6946 105.653C83.6889 104.983 84.4162 104.506 85.3821 104.506C86.4389 104.506 86.9276 105.091 87.1264 105.676L88.6662 105.403ZM98.3253 112.165C99.3764 112.165 100.541 111.812 101.325 111.08L102.109 112H104.03L102.376 110.023C102.871 109.364 103.342 108.33 103.342 106.716H101.808C101.808 107.494 101.626 108.188 101.325 108.767L98.9957 105.983L99.7912 105.398C100.757 104.693 101.337 103.881 101.337 102.773C101.337 101.415 100.24 100.239 98.4503 100.239C96.6776 100.239 95.5128 101.381 95.5128 102.989C95.5128 104.028 96.0582 104.852 96.7912 105.744C95.4616 106.665 94.5582 107.523 94.5582 108.909C94.5582 110.778 95.9844 112.165 98.3253 112.165ZM100.371 109.955C99.7685 110.455 99.0469 110.727 98.331 110.727C97.0696 110.727 96.2457 109.869 96.2457 108.864C96.2457 108.506 96.5469 107.79 97.456 107.119L97.7628 106.892L100.371 109.955ZM98.0582 104.852C97.5298 104.205 97.1151 103.608 97.1151 103.017C97.1151 102.341 97.6719 101.659 98.4901 101.659C99.2741 101.659 99.7855 102.273 99.7855 102.818C99.7855 103.511 99.4048 103.932 98.7741 104.347L98.0582 104.852ZM110.749 100.364H108.851L113.038 112H115.067L119.254 100.364H117.357L114.118 109.841H113.987L110.749 100.364ZM120.798 112H122.497V103.273H120.798V112ZM121.656 101.926C122.241 101.926 122.73 101.472 122.73 100.915C122.73 100.358 122.241 99.8977 121.656 99.8977C121.065 99.8977 120.582 100.358 120.582 100.915C120.582 101.472 121.065 101.926 121.656 101.926ZM128.05 112.17C129.641 112.17 130.266 111.199 130.572 110.642H130.714V112H132.374V100.364H130.675V104.688H130.572C130.266 104.148 129.686 103.159 128.061 103.159C125.953 103.159 124.402 104.824 124.402 107.653C124.402 110.477 125.93 112.17 128.05 112.17ZM128.425 110.722C126.908 110.722 126.118 109.386 126.118 107.636C126.118 105.903 126.891 104.602 128.425 104.602C129.908 104.602 130.703 105.812 130.703 107.636C130.703 109.472 129.891 110.722 128.425 110.722ZM138.56 112.176C140.463 112.176 141.81 111.239 142.196 109.818L140.588 109.528C140.281 110.352 139.543 110.773 138.577 110.773C137.122 110.773 136.145 109.83 136.099 108.148H142.304V107.545C142.304 104.392 140.418 103.159 138.44 103.159C136.009 103.159 134.406 105.011 134.406 107.693C134.406 110.403 135.986 112.176 138.56 112.176ZM136.105 106.875C136.173 105.636 137.071 104.562 138.452 104.562C139.77 104.562 140.634 105.54 140.639 106.875H136.105ZM147.865 112.176C150.325 112.176 151.933 110.375 151.933 107.676C151.933 104.96 150.325 103.159 147.865 103.159C145.405 103.159 143.797 104.96 143.797 107.676C143.797 110.375 145.405 112.176 147.865 112.176ZM147.871 110.75C146.263 110.75 145.513 109.347 145.513 107.67C145.513 106 146.263 104.58 147.871 104.58C149.467 104.58 150.217 106 150.217 107.67C150.217 109.347 149.467 110.75 147.871 110.75ZM160.369 105.403C160.017 104.045 158.955 103.159 157.068 103.159C155.097 103.159 153.699 104.199 153.699 105.744C153.699 106.983 154.449 107.807 156.085 108.17L157.562 108.494C158.403 108.682 158.795 109.057 158.795 109.602C158.795 110.278 158.074 110.807 156.96 110.807C155.943 110.807 155.29 110.369 155.085 109.511L153.443 109.761C153.727 111.307 155.011 112.176 156.972 112.176C159.08 112.176 160.54 111.057 160.54 109.477C160.54 108.244 159.756 107.483 158.153 107.114L156.767 106.795C155.807 106.568 155.392 106.244 155.398 105.653C155.392 104.983 156.119 104.506 157.085 104.506C158.142 104.506 158.631 105.091 158.83 105.676L160.369 105.403Z" fill="white"/>
</g>
<defs>
<filter id="filter0_d_241:6877" x="-2" y="0" width="196" height="176" filterUnits="userSpaceOnUse" color-interpolation-filters="sRGB">
<feFlood flood-opacity="0" result="BackgroundImageFix"/>
<feColorMatrix in="SourceAlpha" type="matrix" values="0 0 0 0 0 0 0 0 0 0 0 0 0 0 0 0 0 0 127 0" result="hardAlpha"/>
<feOffset dy="18"/>
<feGaussianBlur stdDeviation="9"/>
<feColorMatrix type="matrix" values="0 0 0 0 0.198872 0 0 0 0 0.266625 0 0 0 0 0.329167 0 0 0 0.08 0"/>
<feBlend mode="normal" in2="BackgroundImageFix" result="effect1_dropShadow_241:6877"/>
<feBlend mode="normal" in="SourceGraphic" in2="effect1_dropShadow_241:6877" result="shape"/>
</filter>
</defs>
</svg>
