<svg width="24" height="24" viewBox="0 0 24 24" fill="none" xmlns="http://www.w3.org/2000/svg">
<g clip-path="url(#clip0_1872_3433)">
<path d="M24 7.05542C24 8.12742 23.8095 9.16341 23.4286 10.1634C23.0476 11.1634 22.5193 12.0394 21.8437 12.7914L12.1833 23.4474L10.8464 21.9834L20.5067 11.3274C21.5705 10.1754 22.1024 8.75142 22.1024 7.05542C22.1024 5.63142 21.6819 4.45143 20.841 3.51543C20 2.57943 18.9398 2.11143 17.6604 2.11143C16.1941 2.11143 14.9003 2.71143 13.779 3.91143L3.14825 15.6474C2.30009 16.5914 1.87601 17.6554 1.87601 18.8394C1.87601 19.7514 2.14196 20.4994 2.67385 21.0834C3.20575 21.6674 3.8814 21.9594 4.70081 21.9594C5.77898 21.9594 6.74214 21.4874 7.5903 20.5434L15.7197 11.6154C16.4816 10.7354 16.8625 9.95941 16.8625 9.28741C16.8625 8.95142 16.7475 8.68742 16.5175 8.49542C16.2875 8.30342 16.0144 8.20742 15.6981 8.20742C15.0081 8.20742 14.3899 8.52742 13.8437 9.16741L6.51213 17.2314L5.19677 15.7674L12.5067 7.70342C13.4555 6.64742 14.5193 6.11942 15.6981 6.11942C16.5319 6.11942 17.2507 6.41542 17.8544 7.00742C18.4582 7.59942 18.7601 8.35142 18.7601 9.26341C18.7601 10.5114 18.1923 11.7834 17.0566 13.0794L8.92722 22.0074C7.71968 23.3514 6.31087 24.0234 4.70081 24.0234C3.36388 24.0234 2.24618 23.5314 1.34771 22.5474C0.449236 21.5634 0 20.3274 0 18.8394C0 17.0794 0.603774 15.5274 1.81132 14.1834L12.442 2.44743C13.9371 0.831435 15.6765 0.0234375 17.6604 0.0234375C19.4573 0.0234375 20.9632 0.695436 22.1779 2.03943C23.3926 3.38343 24 5.05543 24 7.05542Z" fill="#5D5D63"/>
</g>
<defs>
<clipPath id="clip0_1872_3433">
<rect width="24" height="24" fill="white"/>
</clipPath>
</defs>
</svg>
