<svg width="21" height="18" viewBox="0 0 21 18" fill="none" xmlns="http://www.w3.org/2000/svg">
<path d="M15.331 13C13.73 13 12.885 12.324 12.206 11.781C11.639 11.328 11.229 11 10.328 11C9.42999 11 9.04098 11.311 8.45398 11.78C7.77498 12.324 6.92998 13 5.32898 13C3.72798 13 2.88498 12.324 2.20598 11.78C1.61898 11.311 1.23098 11 0.333984 11V16C0.333984 17.103 1.23098 18 2.33398 18H18.334C19.437 18 20.334 17.103 20.334 16V11C19.435 11 19.046 11.311 18.458 11.781C17.778 12.324 16.933 13 15.331 13ZM17.334 3H11.334V0H9.33398V3H3.33398C1.67998 3 0.333984 4.346 0.333984 6V9C1.93398 9 2.77698 9.676 3.45598 10.22C4.04298 10.689 4.43098 11 5.32898 11C6.22798 11 6.61598 10.689 7.20398 10.219C7.88298 9.676 8.72798 9 10.328 9C11.93 9 12.775 9.676 13.455 10.219C14.043 10.689 14.432 11 15.331 11C16.231 11 16.642 10.672 17.209 10.219C17.888 9.676 18.733 9 20.334 9V6C20.334 4.346 18.988 3 17.334 3Z" fill="#8F8D86"/>
</svg>
