<svg width="18" height="21" viewBox="0 0 18 21" fill="none" xmlns="http://www.w3.org/2000/svg">
<path fill-rule="evenodd" clip-rule="evenodd" d="M13.4186 1.02097C13.3728 0.680438 13.0831 0.417969 12.7326 0.417969C12.3503 0.417969 12.0403 0.730328 12.0403 1.11564V1.88699H5.96814V1.11564L5.96182 1.02097C5.91598 0.680438 5.62632 0.417969 5.27583 0.417969C4.89348 0.417969 4.58353 0.730328 4.58353 1.11564V1.90431C1.74655 2.0997 0 3.93789 0 6.90376V15.322C0 18.5052 1.95834 20.418 5.09625 20.418H12.9036C16.0453 20.418 17.9999 18.5372 17.9999 15.3924V6.90376C18.009 3.93683 16.268 2.09916 13.4249 1.90423V1.11564L13.4186 1.02097ZM12.0403 3.28234V4.17683L12.0466 4.2715C12.0925 4.61204 12.3821 4.87451 12.7326 4.87451C13.115 4.87451 13.4249 4.56215 13.4249 4.17683V3.30296C15.4935 3.47506 16.622 4.72071 16.6153 6.90162V7.30565H1.38461V6.90376C1.38461 4.72423 2.51925 3.47595 4.58353 3.3031V4.17683L4.58985 4.2715C4.63569 4.61204 4.92535 4.87451 5.27583 4.87451C5.65818 4.87451 5.96814 4.56215 5.96814 4.17683V3.28234H12.0403ZM1.38461 8.701V15.322C1.38461 17.7246 2.71352 19.0226 5.09625 19.0226H12.9036C15.2946 19.0226 16.6153 17.7518 16.6153 15.3924L16.6153 8.701H1.38461ZM13.8012 11.6363C13.8012 11.251 13.4912 10.9386 13.1089 10.9386L13.0064 10.945C12.6685 10.9912 12.408 11.2831 12.408 11.6363C12.408 12.0216 12.718 12.334 13.1089 12.334L13.2028 12.3276C13.5407 12.2814 13.8012 11.9895 13.8012 11.6363ZM9.01278 10.9386C9.39513 10.9386 9.70508 11.251 9.70508 11.6363C9.70508 11.9895 9.44463 12.2814 9.10672 12.3276L9.01278 12.334C8.62187 12.334 8.31192 12.0216 8.31192 11.6363C8.31192 11.2831 8.57237 10.9912 8.91028 10.945L9.01278 10.9386ZM5.60043 11.6363C5.60043 11.251 5.29047 10.9386 4.90812 10.9386L4.80563 10.945C4.46772 10.9912 4.20727 11.2831 4.20727 11.6363C4.20727 12.0216 4.51722 12.334 4.89957 12.334L5.00207 12.3276C5.33998 12.2814 5.60043 11.9895 5.60043 11.6363ZM13.1089 14.554C13.4912 14.554 13.8012 14.8663 13.8012 15.2517C13.8012 15.6049 13.5407 15.8968 13.2028 15.943L13.1089 15.9493C12.718 15.9493 12.408 15.637 12.408 15.2517C12.408 14.8985 12.6685 14.6066 13.0064 14.5604L13.1089 14.554ZM9.70508 15.2517C9.70508 14.8663 9.39513 14.554 9.01278 14.554L8.91028 14.5604C8.57237 14.6066 8.31192 14.8985 8.31192 15.2517C8.31192 15.637 8.62187 15.9493 9.01278 15.9493L9.10672 15.943C9.44463 15.8968 9.70508 15.6049 9.70508 15.2517ZM4.90812 14.554C5.29047 14.554 5.60043 14.8663 5.60043 15.2517C5.60043 15.6049 5.33998 15.8968 5.00207 15.943L4.89957 15.9493C4.51722 15.9493 4.20727 15.637 4.20727 15.2517C4.20727 14.8985 4.46772 14.6066 4.80563 14.5604L4.90812 14.554Z" fill="#DB8057"/>
</svg>
