<svg width="20" height="21" viewBox="0 0 20 21" fill="none" xmlns="http://www.w3.org/2000/svg">
<path fill-rule="evenodd" clip-rule="evenodd" d="M10.058 0.41805C6.54635 0.403938 3.28554 2.22482 1.46059 5.21791C-0.364589 8.21139 -0.487117 11.9405 1.13765 15.047L1.32147 15.4053C1.39175 15.537 1.40531 15.6791 1.36458 15.8105C1.10204 16.5043 0.871363 17.2535 0.687298 18.0148L0.667756 18.1787C0.667756 18.9442 1.07616 19.4701 1.88671 19.4521L2.02167 19.4358C2.75798 19.2733 3.4831 19.0638 4.19261 18.8087C4.28665 18.7849 4.4407 18.7941 4.57971 18.851L5.26224 19.2373C5.26378 19.242 5.26493 19.2456 5.27208 19.2498L5.31788 19.2658C8.99294 21.1982 13.4812 20.6651 16.5997 17.9257C19.7187 15.1859 20.8199 10.8079 19.3675 6.92168C17.9153 3.03583 14.2115 0.448575 10.058 0.41805ZM9.76749 1.81684L10.0484 1.81244C13.6231 1.83963 16.8109 4.06642 18.0605 7.41015C19.31 10.7535 18.3626 14.5199 15.6788 16.8774L15.4587 17.0644C12.8626 19.1958 9.25821 19.6254 6.23269 18.1646L5.94496 18.0204L5.95729 18.022L5.93909 18.0171L5.51677 17.7747C5.36471 17.6888 5.24408 17.6237 5.14685 17.5768C4.6837 17.3859 4.21354 17.3578 3.77133 17.4795L3.35272 17.6233C3.07605 17.7147 2.80372 17.7972 2.53273 17.8719L2.13767 17.9751L2.04356 18.3427C2.21419 17.637 2.42804 16.9424 2.68389 16.2629C2.84853 15.7361 2.79818 15.2083 2.55755 14.758L2.37662 14.4052C0.976269 11.7277 1.08168 8.51972 2.65196 5.9443C4.17338 3.44902 6.85494 1.90017 9.76749 1.81684ZM4.4746 10.418C4.4746 9.78781 4.98586 9.27738 5.61596 9.27738C6.24606 9.27738 6.75732 9.78781 6.75732 10.418C6.75732 11.0482 6.24606 11.5586 5.61596 11.5586C4.98586 11.5586 4.4746 11.0482 4.4746 10.418ZM8.91148 10.418C8.91148 9.78781 9.42274 9.27738 10.0528 9.27738C10.6829 9.27738 11.1942 9.78781 11.1942 10.418C11.1942 11.0482 10.6829 11.5586 10.0528 11.5586C9.42274 11.5586 8.91148 11.0482 8.91148 10.418ZM14.4897 9.27738C13.8596 9.27738 13.3484 9.78781 13.3484 10.418C13.3484 11.0482 13.8596 11.5586 14.4897 11.5586C15.1198 11.5586 15.6311 11.0482 15.6311 10.418C15.6311 9.78781 15.1198 9.27738 14.4897 9.27738Z" fill="#DB8057"/>
</svg>
