<svg width="21" height="18" viewBox="0 0 21 18" fill="none" xmlns="http://www.w3.org/2000/svg">
<path d="M17.4266 1.42521C17.7788 1.08993 18.2474 0.904578 18.7337 0.908257C19.2199 0.911936 19.6857 1.10436 20.0327 1.44493C20.3798 1.7855 20.581 2.24757 20.5938 2.73365C20.6067 3.21972 20.4302 3.69178 20.1016 4.05021L10.1266 16.5252C9.95509 16.71 9.74808 16.8582 9.51794 16.9611C9.28781 17.064 9.03929 17.1195 8.78724 17.1242C8.53519 17.1288 8.28479 17.0826 8.05101 16.9883C7.81722 16.894 7.60486 16.7535 7.42661 16.5752L0.811615 9.96021C0.627398 9.78856 0.479642 9.58155 0.377162 9.35156C0.274683 9.12156 0.219578 8.87327 0.215136 8.62152C0.210694 8.36976 0.257006 8.11969 0.351308 7.88622C0.445611 7.65275 0.585972 7.44066 0.764019 7.26262C0.942066 7.08457 1.15415 6.94421 1.38762 6.8499C1.62109 6.7556 1.87116 6.70929 2.12292 6.71373C2.37468 6.71817 2.62296 6.77328 2.85296 6.87576C3.08296 6.97824 3.28996 7.12599 3.46161 7.31021L8.69662 12.5427L17.3791 1.48021C17.3947 1.46096 17.4114 1.4426 17.4291 1.42521H17.4266Z" fill="#869EBC"/>
</svg>
