<svg width="24" height="24" viewBox="0 0 24 24" fill="none" xmlns="http://www.w3.org/2000/svg">
<path fill-rule="evenodd" clip-rule="evenodd" d="M16 0C20.4183 0 24 3.58172 24 8V16C24 20.4183 20.4183 24 16 24H8C3.58172 24 0 20.4183 0 16V8C0 3.58172 3.58172 0 8 0H16ZM15.8262 8.29289L10.484 13.6352L7.90711 11.0583C7.51658 10.6678 6.88342 10.6678 6.49289 11.0583C6.10237 11.4488 6.10237 12.082 6.49289 12.4725L9.77684 15.7565C10.1674 16.147 10.8005 16.147 11.1911 15.7565L17.2404 9.70711C17.631 9.31658 17.631 8.68342 17.2404 8.29289C16.8499 7.90237 16.2168 7.90237 15.8262 8.29289Z" fill="white"/>
</svg>
