<svg width="26" height="26" viewBox="0 0 26 26" fill="none" xmlns="http://www.w3.org/2000/svg">
<path fill-rule="evenodd" clip-rule="evenodd" d="M17 1C21.4183 1 25 4.58172 25 9V17C25 21.4183 21.4183 25 17 25H9C4.58172 25 1 21.4183 1 17V9C1 4.58172 4.58172 1 9 1H17Z" fill="#FAFAFA"/>
<path d="M17 1.5C21.1421 1.5 24.5 4.85786 24.5 9H25.5C25.5 4.30558 21.6944 0.5 17 0.5V1.5ZM24.5 9V17H25.5V9H24.5ZM24.5 17C24.5 21.1421 21.1421 24.5 17 24.5V25.5C21.6944 25.5 25.5 21.6944 25.5 17H24.5ZM17 24.5H9V25.5H17V24.5ZM9 24.5C4.85786 24.5 1.5 21.1421 1.5 17H0.5C0.5 21.6944 4.30558 25.5 9 25.5V24.5ZM1.5 17V9H0.5V17H1.5ZM1.5 9C1.5 4.85786 4.85786 1.5 9 1.5V0.5C4.30558 0.5 0.5 4.30558 0.5 9H1.5ZM9 1.5H17V0.5H9V1.5Z" fill="#869EBC"/>
</svg>
