<svg width="194" height="176" viewBox="0 0 194 176" fill="none" xmlns="http://www.w3.org/2000/svg">
<g filter="url(#filter0_d_241:6907)">
<rect x="16" width="160" height="140" rx="12" fill="#E3BDA6"/>
<path d="M90.5609 38.4062H75.4227C73.6859 38.4062 72.2773 39.8148 72.2773 41.5516V63.9531L114.465 63.9461V56.9219" stroke="white" stroke-width="1.64062" stroke-miterlimit="10" stroke-linecap="round"/>
<path d="M111.422 57.1562V60.4375" stroke="white" stroke-width="1.64062" stroke-miterlimit="10" stroke-linecap="round"/>
<path d="M75.3281 60.9062V43.0469C75.3281 42.0367 76.1461 41.2188 77.1562 41.2188H80.9531" stroke="white" stroke-width="1.64062" stroke-miterlimit="10" stroke-linecap="round"/>
<path d="M72.3672 64.0469L70.2695 71.6313" stroke="white" stroke-width="1.64062" stroke-miterlimit="10" stroke-linecap="round"/>
<path d="M114.318 64.0469L116.416 71.6313" stroke="white" stroke-width="1.64062" stroke-miterlimit="10" stroke-linecap="round"/>
<path d="M115.285 74.266H71.6938C70.9813 74.266 70.4023 73.6895 70.4023 72.9746V71.5332C70.4023 71.4887 70.4375 71.4512 70.4844 71.4512H116.506C116.544 71.4512 116.574 71.4816 116.574 71.5191V72.9723C116.577 73.6895 115.998 74.266 115.285 74.266Z" stroke="white" stroke-width="1.64062" stroke-miterlimit="10" stroke-linecap="round"/>
<path d="M75.555 65.5547L74.8659 68.482C74.8191 68.6836 74.9714 68.8781 75.18 68.8781H111.304C111.503 68.8781 111.656 68.6977 111.621 68.5008L111.1 65.557" stroke="white" stroke-width="1.64062" stroke-miterlimit="10" stroke-linecap="round"/>
<path d="M93.375 44.7344V31.3938C93.375 30.4773 94.118 29.7344 95.0344 29.7344H120.075C120.991 29.7344 121.734 30.4773 121.734 31.3938V52.9187C121.734 53.8352 120.991 54.5781 120.075 54.5781H95.0297C94.1156 54.5781 93.375 53.8328 93.375 52.9141" stroke="white" stroke-width="1.64062" stroke-miterlimit="10" stroke-linecap="round"/>
<path d="M93.375 35.8281H117.984" stroke="white" stroke-width="1.64062" stroke-miterlimit="10" stroke-linecap="round"/>
<path d="M96.6562 32.7812H97.125" stroke="white" stroke-width="1.64062" stroke-miterlimit="10" stroke-linecap="round"/>
<path d="M99.2344 32.7812H99.9375" stroke="white" stroke-width="1.64062" stroke-miterlimit="10" stroke-linecap="round"/>
<path d="M102.047 32.7812H102.75" stroke="white" stroke-width="1.64062" stroke-miterlimit="10" stroke-linecap="round"/>
<path d="M85.6406 46.8438C87.1939 46.8438 88.4531 45.5846 88.4531 44.0312C88.4531 42.4779 87.1939 41.2188 85.6406 41.2188C84.0873 41.2188 82.8281 42.4779 82.8281 44.0312C82.8281 45.5846 84.0873 46.8438 85.6406 46.8438Z" stroke="white" stroke-width="1.64062" stroke-miterlimit="10" stroke-linecap="round"/>
<path d="M78.6094 60.9072V50.4798C78.6094 49.3993 79.3102 48.4431 80.3414 48.1197L82.0828 47.5712C82.3055 47.5009 82.5492 47.5642 82.7109 47.7353L84.1922 49.315" stroke="white" stroke-width="1.64062" stroke-miterlimit="10" stroke-linecap="round"/>
<path d="M85.5215 51.5336L88.3879 47.657C88.5426 47.4484 88.8121 47.3594 89.0605 47.3125H92.0676H98.9348C99.1902 47.4086 99.3988 47.6172 99.4668 47.8727V47.9828C99.3988 49.2109 98.4895 50.2516 97.2707 50.4133L89.623 51.4328V60.9062" stroke="white" stroke-width="1.64062" stroke-miterlimit="10" stroke-linecap="round"/>
<path d="M81.4219 52.2344V56.4531" stroke="white" stroke-width="1.64062" stroke-miterlimit="10" stroke-linecap="round"/>
<path d="M98.0625 44.5V38.6406H116.578V50.3594H101.109" stroke="white" stroke-width="1.64062" stroke-miterlimit="10" stroke-linecap="round"/>
<path d="M99.2734 47.5414L107.301 43.707" stroke="white" stroke-width="1.64062" stroke-miterlimit="10" stroke-linecap="round"/>
<path d="M76.951 104.148C76.5533 101.659 74.6044 100.205 72.1442 100.205C69.1328 100.205 66.9112 102.46 66.9112 106.182C66.9112 109.903 69.1214 112.159 72.1442 112.159C74.701 112.159 76.5703 110.557 76.951 108.256L75.1783 108.25C74.8771 109.739 73.6271 110.557 72.1555 110.557C70.1612 110.557 68.6555 109.028 68.6555 106.182C68.6555 103.358 70.1555 101.807 72.1612 101.807C73.6442 101.807 74.8885 102.642 75.1783 104.148H76.951ZM80.6143 100.364H78.9155V112H80.6143V100.364ZM85.4396 112.193C86.8828 112.193 87.6953 111.46 88.0192 110.807H88.0874V112H89.7464V106.205C89.7464 103.665 87.7464 103.159 86.3601 103.159C84.7805 103.159 83.326 103.795 82.7578 105.386L84.3544 105.75C84.6044 105.131 85.2408 104.534 86.3828 104.534C87.4794 104.534 88.0419 105.108 88.0419 106.097V106.136C88.0419 106.756 87.4055 106.744 85.8374 106.926C84.1839 107.119 82.4908 107.551 82.4908 109.534C82.4908 111.25 83.7805 112.193 85.4396 112.193ZM85.8089 110.83C84.8487 110.83 84.1555 110.398 84.1555 109.557C84.1555 108.648 84.9624 108.324 85.9453 108.193C86.4964 108.119 87.8033 107.972 88.0476 107.727V108.852C88.0476 109.886 87.2237 110.83 85.8089 110.83ZM98.549 105.403C98.1967 104.045 97.1342 103.159 95.2479 103.159C93.2763 103.159 91.8786 104.199 91.8786 105.744C91.8786 106.983 92.6286 107.807 94.2649 108.17L95.7422 108.494C96.5831 108.682 96.9751 109.057 96.9751 109.602C96.9751 110.278 96.2536 110.807 95.1399 110.807C94.1229 110.807 93.4695 110.369 93.2649 109.511L91.6229 109.761C91.907 111.307 93.1911 112.176 95.1513 112.176C97.2592 112.176 98.7195 111.057 98.7195 109.477C98.7195 108.244 97.9354 107.483 96.3331 107.114L94.9467 106.795C93.9865 106.568 93.5717 106.244 93.5774 105.653C93.5717 104.983 94.299 104.506 95.2649 104.506C96.3217 104.506 96.8104 105.091 97.0092 105.676L98.549 105.403ZM107.127 105.403C106.775 104.045 105.712 103.159 103.826 103.159C101.854 103.159 100.457 104.199 100.457 105.744C100.457 106.983 101.207 107.807 102.843 108.17L104.32 108.494C105.161 108.682 105.553 109.057 105.553 109.602C105.553 110.278 104.832 110.807 103.718 110.807C102.701 110.807 102.048 110.369 101.843 109.511L100.201 109.761C100.485 111.307 101.769 112.176 103.729 112.176C105.837 112.176 107.298 111.057 107.298 109.477C107.298 108.244 106.513 107.483 104.911 107.114L103.525 106.795C102.565 106.568 102.15 106.244 102.156 105.653C102.15 104.983 102.877 104.506 103.843 104.506C104.9 104.506 105.388 105.091 105.587 105.676L107.127 105.403ZM112.927 112.176C114.83 112.176 116.177 111.239 116.563 109.818L114.955 109.528C114.648 110.352 113.91 110.773 112.944 110.773C111.489 110.773 110.512 109.83 110.467 108.148H116.671V107.545C116.671 104.392 114.785 103.159 112.808 103.159C110.376 103.159 108.773 105.011 108.773 107.693C108.773 110.403 110.353 112.176 112.927 112.176ZM110.472 106.875C110.54 105.636 111.438 104.562 112.819 104.562C114.137 104.562 115.001 105.54 115.006 106.875H110.472ZM125.096 105.403C124.744 104.045 123.681 103.159 121.795 103.159C119.823 103.159 118.425 104.199 118.425 105.744C118.425 106.983 119.175 107.807 120.812 108.17L122.289 108.494C123.13 108.682 123.522 109.057 123.522 109.602C123.522 110.278 122.8 110.807 121.687 110.807C120.67 110.807 120.016 110.369 119.812 109.511L118.17 109.761C118.454 111.307 119.738 112.176 121.698 112.176C123.806 112.176 125.266 111.057 125.266 109.477C125.266 108.244 124.482 107.483 122.88 107.114L121.494 106.795C120.533 106.568 120.119 106.244 120.124 105.653C120.119 104.983 120.846 104.506 121.812 104.506C122.869 104.506 123.357 105.091 123.556 105.676L125.096 105.403Z" fill="white"/>
</g>
<defs>
<filter id="filter0_d_241:6907" x="-2" y="0" width="196" height="176" filterUnits="userSpaceOnUse" color-interpolation-filters="sRGB">
<feFlood flood-opacity="0" result="BackgroundImageFix"/>
<feColorMatrix in="SourceAlpha" type="matrix" values="0 0 0 0 0 0 0 0 0 0 0 0 0 0 0 0 0 0 127 0" result="hardAlpha"/>
<feOffset dy="18"/>
<feGaussianBlur stdDeviation="9"/>
<feColorMatrix type="matrix" values="0 0 0 0 0.198872 0 0 0 0 0.266625 0 0 0 0 0.329167 0 0 0 0.08 0"/>
<feBlend mode="normal" in2="BackgroundImageFix" result="effect1_dropShadow_241:6907"/>
<feBlend mode="normal" in="SourceGraphic" in2="effect1_dropShadow_241:6907" result="shape"/>
</filter>
</defs>
</svg>
