<svg width="21" height="20" viewBox="0 0 21 20" fill="none" xmlns="http://www.w3.org/2000/svg">
<path fill-rule="evenodd" clip-rule="evenodd" d="M9.37129 1.39453V11.6187L7.73671 9.97859L7.65274 9.9058C7.35958 9.68734 6.94287 9.71069 6.67605 9.97641C6.38256 10.2687 6.38158 10.7436 6.67388 11.0371L9.58988 13.9651L9.59213 13.967C9.61678 13.9916 9.64313 14.0144 9.67098 14.0354L9.6741 14.038C9.96815 14.257 10.3862 14.2327 10.6527 13.9651L13.5687 11.0371L13.6412 10.9528C13.8584 10.6587 13.8333 10.2421 13.5665 9.97641L13.4823 9.90397C13.1882 9.68672 12.7716 9.71178 12.5059 9.97859L10.8713 11.6192V1.39453L10.8644 1.29276C10.8148 0.926685 10.501 0.644531 10.1213 0.644531C9.70708 0.644531 9.37129 0.980318 9.37129 1.39453ZM15.9044 19.1166C18.2519 19.0079 20.1211 17.0708 20.1211 14.6964V9.81243L20.1163 9.6036C20.0073 7.2506 18.0665 5.37743 15.6871 5.37743H14.7541L14.6523 5.38428C14.2862 5.43394 14.0041 5.74774 14.0041 6.12743C14.0041 6.54165 14.3399 6.87743 14.7541 6.87743H15.6871L15.8595 6.88241C17.4001 6.97163 18.6211 8.24868 18.6211 9.81243V14.6964L18.6161 14.8683C18.5272 16.4041 17.2542 17.6214 15.6961 17.6214H4.55609L4.38366 17.6164C2.84311 17.5272 1.62109 16.2493 1.62109 14.6864V9.80143L1.62606 9.62966C1.71505 8.09504 2.98873 6.87743 4.54609 6.87743H5.48809L5.58986 6.87058C5.95594 6.82092 6.23809 6.50713 6.23809 6.12743C6.23809 5.71322 5.90231 5.37743 5.48809 5.37743H4.54609L4.33174 5.38253C1.9879 5.49436 0.121094 7.4302 0.121094 9.80143V14.6864L0.125921 14.8952C0.234945 17.2475 2.17686 19.1214 4.55609 19.1214H15.6961L15.9044 19.1166Z" fill="#DB8057"/>
</svg>
