<svg width="24" height="24" viewBox="0 0 24 24" fill="none" xmlns="http://www.w3.org/2000/svg">
<g clip-path="url(#clip0_217:4064)">
<path fill-rule="evenodd" clip-rule="evenodd" d="M13.4726 2.34917C13.3241 2.09052 13.11 1.87562 12.8519 1.72618C12.5938 1.57674 12.3008 1.49805 12.0026 1.49805C11.7043 1.49805 11.4113 1.57674 11.1532 1.72618C10.8951 1.87562 10.681 2.09052 10.5326 2.34917L0.247053 19.8497C-0.438447 21.0167 0.383553 22.5002 1.71705 22.5002H22.2866C23.6201 22.5002 24.4436 21.0152 23.7566 19.8497L13.4726 2.34917ZM11.9996 7.50017C11.81 7.50028 11.6225 7.5401 11.4492 7.61706C11.276 7.69403 11.1207 7.80643 10.9936 7.94704C10.8664 8.08764 10.7701 8.25333 10.7108 8.43342C10.6516 8.61351 10.6307 8.80402 10.6496 8.99267L11.1746 14.2532C11.1922 14.4598 11.2867 14.6523 11.4395 14.7926C11.5923 14.9329 11.7921 15.0108 11.9996 15.0108C12.207 15.0108 12.4068 14.9329 12.5596 14.7926C12.7124 14.6523 12.8069 14.4598 12.8246 14.2532L13.3496 8.99267C13.3684 8.80402 13.3475 8.61351 13.2883 8.43342C13.229 8.25333 13.1327 8.08764 13.0055 7.94704C12.8784 7.80643 12.7231 7.69403 12.5499 7.61706C12.3766 7.5401 12.1891 7.50028 11.9996 7.50017ZM12.0026 16.5002C11.6047 16.5002 11.2232 16.6582 10.9419 16.9395C10.6606 17.2208 10.5026 17.6023 10.5026 18.0002C10.5026 18.398 10.6606 18.7795 10.9419 19.0608C11.2232 19.3421 11.6047 19.5002 12.0026 19.5002C12.4004 19.5002 12.7819 19.3421 13.0632 19.0608C13.3445 18.7795 13.5026 18.398 13.5026 18.0002C13.5026 17.6023 13.3445 17.2208 13.0632 16.9395C12.7819 16.6582 12.4004 16.5002 12.0026 16.5002Z" fill="white"/>
</g>
<defs>
<clipPath id="clip0_217:4064">
<rect width="24" height="24" fill="white"/>
</clipPath>
</defs>
</svg>
