<svg width="22" height="14" viewBox="0 0 22 14" fill="none" xmlns="http://www.w3.org/2000/svg">
<path d="M10.9995 0C14.6892 0 17.9735 2.18957 20.8297 6.44248L21.2041 7L20.8297 7.55752C17.9735 11.8104 14.6892 14 10.9995 14C7.30983 14 4.02548 11.8104 1.16934 7.55752L0.794922 7L1.16934 6.44248C4.02548 2.18957 7.30983 0 10.9995 0ZM10.9995 2C8.21139 2 5.62333 3.6307 3.21574 7C5.62333 10.3693 8.21139 12 10.9995 12C13.7876 12 16.3757 10.3693 18.7833 7C16.3757 3.6307 13.7876 2 10.9995 2ZM10.9995 4C12.6564 4 13.9995 5.34315 13.9995 7C13.9995 8.65685 12.6564 10 10.9995 10C9.34265 10 7.9995 8.65685 7.9995 7C7.9995 5.34315 9.34265 4 10.9995 4Z" fill="#8F8D86"/>
</svg>
