<svg width="24" height="24" viewBox="0 0 24 24" fill="none" xmlns="http://www.w3.org/2000/svg">
<path d="M12.0015 5C15.6911 5 18.9755 7.18957 21.8316 11.4425L22.206 12L21.8316 12.5575C18.9755 16.8104 15.6911 19 12.0015 19C8.31178 19 5.02743 16.8104 2.17129 12.5575L1.79688 12L2.17129 11.4425C5.02743 7.18957 8.31178 5 12.0015 5ZM12.0015 7C9.21334 7 6.62528 8.6307 4.2177 12C6.62528 15.3693 9.21334 17 12.0015 17C14.7896 17 17.3776 15.3693 19.7852 12C17.3776 8.6307 14.7896 7 12.0015 7ZM12.0015 9C13.6583 9 15.0015 10.3431 15.0015 12C15.0015 13.6569 13.6583 15 12.0015 15C10.3446 15 9.00145 13.6569 9.00145 12C9.00145 10.3431 10.3446 9 12.0015 9Z" fill="#8F8D86"/>
</svg>
