<svg width="196" height="176" viewBox="0 0 196 176" fill="none" xmlns="http://www.w3.org/2000/svg">
<g filter="url(#filter0_d_241:6930)">
<rect x="18" width="160" height="140" rx="12" fill="#908E87"/>
<path d="M95.6562 74.166V74.4848C95.6562 75.7152 96.6523 76.7113 97.8828 76.7113C99.1133 76.7113 100.109 75.7152 100.109 74.4848V74.166H103.285C103.92 74.166 104.497 73.7934 104.759 73.2145L104.855 73.0012C105.125 72.4035 105.266 71.7566 105.266 71.1027V67.184C105.266 66.6379 104.825 66.1973 104.279 66.1973H91.9555C91.4094 66.1973 90.9688 66.6379 90.9688 67.184V71.1449C90.9688 71.8105 91.1141 72.4691 91.393 73.0738L91.7305 73.8051C91.8359 74.0348 92.068 74.1801 92.3211 74.1754L93.1742 74.159" stroke="white" stroke-width="1.64062" stroke-miterlimit="10" stroke-linecap="round"/>
<path d="M104.798 64.0886V61.7425C104.798 60.1253 105.447 58.5643 106.626 57.4581C109.103 55.1307 110.655 51.8284 110.655 48.1604C110.655 39.3479 101.73 32.6214 92.425 36.5261C89.6782 37.6792 87.4657 39.8612 86.2938 42.5987C83.8258 48.362 85.4477 53.9706 89.118 57.4346C90.304 58.5526 90.9719 60.1136 90.9719 61.7425V64.0886" stroke="white" stroke-width="1.64062" stroke-miterlimit="10" stroke-linecap="round"/>
<path d="M93.3125 68.541H99.6406" stroke="white" stroke-width="1.64062" stroke-miterlimit="10" stroke-linecap="round"/>
<path d="M96.5938 71.3535H102.922" stroke="white" stroke-width="1.64062" stroke-miterlimit="10" stroke-linecap="round"/>
<path d="M98 27.291V32.4473" stroke="white" stroke-width="1.64062" stroke-miterlimit="10" stroke-linecap="round"/>
<path d="M108.435 30.1289L105.871 34.5703" stroke="white" stroke-width="1.64062" stroke-miterlimit="10" stroke-linecap="round"/>
<path d="M116.077 37.6953L111.633 40.2594" stroke="white" stroke-width="1.64062" stroke-miterlimit="10" stroke-linecap="round"/>
<path d="M118.859 48.1512L113.703 48.1465" stroke="white" stroke-width="1.64062" stroke-miterlimit="10" stroke-linecap="round"/>
<path d="M116.171 58.4707L111.732 55.9043" stroke="white" stroke-width="1.64062" stroke-miterlimit="10" stroke-linecap="round"/>
<path d="M80.1953 58.6137L84.6414 56.0566" stroke="white" stroke-width="1.64062" stroke-miterlimit="10" stroke-linecap="round"/>
<path d="M77.1406 48.3848L82.2969 48.3941" stroke="white" stroke-width="1.64062" stroke-miterlimit="10" stroke-linecap="round"/>
<path d="M80.127 37.8379L84.5613 40.4113" stroke="white" stroke-width="1.64062" stroke-miterlimit="10" stroke-linecap="round"/>
<path d="M87.709 30.209L90.2613 34.6574" stroke="white" stroke-width="1.64062" stroke-miterlimit="10" stroke-linecap="round"/>
<path d="M94.7188 63.8535V50.2996L97.7117 44.166H97.8195L100.812 50.2996V63.8535" stroke="white" stroke-width="1.64062" stroke-miterlimit="10" stroke-linecap="round"/>
<path d="M95.4219 51.9004H100.109" stroke="white" stroke-width="1.64062" stroke-miterlimit="10" stroke-linecap="round"/>
<path d="M97.7656 51.9004L97.8148 63.1504" stroke="white" stroke-width="1.64062" stroke-miterlimit="10" stroke-linecap="round"/>
<path d="M75.1925 112H76.9482V106.926H81.8913V105.42H76.9482V101.875H82.4084V100.364H75.1925V112ZM87.4666 112.176C89.9268 112.176 91.5348 110.375 91.5348 107.676C91.5348 104.96 89.9268 103.159 87.4666 103.159C85.0064 103.159 83.3984 104.96 83.3984 107.676C83.3984 110.375 85.0064 112.176 87.4666 112.176ZM87.4723 110.75C85.8643 110.75 85.1143 109.347 85.1143 107.67C85.1143 106 85.8643 104.58 87.4723 104.58C89.0689 104.58 89.8189 106 89.8189 107.67C89.8189 109.347 89.0689 110.75 87.4723 110.75ZM93.4311 112H95.13V106.67C95.13 105.528 96.0107 104.705 97.2152 104.705C97.5675 104.705 97.9652 104.767 98.1016 104.807V103.182C97.9311 103.159 97.5959 103.142 97.38 103.142C96.3572 103.142 95.4822 103.722 95.1641 104.659H95.0732V103.273H93.4311V112ZM105.1 108.381C105.106 109.864 104.004 110.568 103.049 110.568C101.998 110.568 101.271 109.807 101.271 108.619V103.273H99.5717V108.824C99.5717 110.989 100.759 112.114 102.435 112.114C103.748 112.114 104.64 111.42 105.043 110.489H105.134V112H106.805V103.273H105.1V108.381ZM109.087 112H110.786V106.619C110.786 105.443 111.61 104.625 112.576 104.625C113.519 104.625 114.173 105.25 114.173 106.199V112H115.866V106.438C115.866 105.386 116.508 104.625 117.616 104.625C118.513 104.625 119.252 105.125 119.252 106.307V112H120.951V106.148C120.951 104.153 119.837 103.159 118.258 103.159C117.002 103.159 116.059 103.761 115.638 104.693H115.548C115.167 103.739 114.366 103.159 113.201 103.159C112.048 103.159 111.19 103.733 110.826 104.693H110.718V103.273H109.087V112Z" fill="white"/>
</g>
<defs>
<filter id="filter0_d_241:6930" x="0" y="0" width="196" height="176" filterUnits="userSpaceOnUse" color-interpolation-filters="sRGB">
<feFlood flood-opacity="0" result="BackgroundImageFix"/>
<feColorMatrix in="SourceAlpha" type="matrix" values="0 0 0 0 0 0 0 0 0 0 0 0 0 0 0 0 0 0 127 0" result="hardAlpha"/>
<feOffset dy="18"/>
<feGaussianBlur stdDeviation="9"/>
<feColorMatrix type="matrix" values="0 0 0 0 0.198872 0 0 0 0 0.266625 0 0 0 0 0.329167 0 0 0 0.08 0"/>
<feBlend mode="normal" in2="BackgroundImageFix" result="effect1_dropShadow_241:6930"/>
<feBlend mode="normal" in="SourceGraphic" in2="effect1_dropShadow_241:6930" result="shape"/>
</filter>
</defs>
</svg>
