<svg width="17" height="17" viewBox="0 0 17 17" fill="none" xmlns="http://www.w3.org/2000/svg">
<path d="M16.7031 8.43357C16.7031 7.99086 16.6588 7.52601 16.5703 7.03904H8.73436V9.8945H13.416C13.3274 10.3815 13.1393 10.8685 12.8515 11.3554C12.4531 11.9531 11.9551 12.429 11.3574 12.7832C10.6048 13.2259 9.73045 13.4472 8.73436 13.4472C7.80467 13.4472 6.95246 13.2093 6.17772 12.7334C5.40299 12.2575 4.7832 11.6266 4.31835 10.8408C3.85351 10.055 3.62109 9.18617 3.62109 8.23435C3.62109 7.12758 3.91991 6.14255 4.51757 5.27928C5.07095 4.4824 5.80142 3.88475 6.70897 3.48632C7.61652 3.08788 8.53514 2.95507 9.46483 3.08788C10.4609 3.22069 11.3131 3.6302 12.0215 4.31639L14.2461 2.1582C12.7187 0.719395 10.8815 0 8.73436 0C7.25129 0 5.8789 0.370768 4.61718 1.1123C3.35546 1.85384 2.35384 2.85546 1.6123 4.11718C0.87077 5.3789 0.5 6.75129 0.5 8.23436C0.5 9.71743 0.870768 11.0898 1.6123 12.3515C2.35384 13.6133 3.35546 14.6149 4.61718 15.3564C5.8789 16.0979 7.25129 16.4687 8.73436 16.4687C10.306 16.4687 11.695 16.1256 12.9013 15.4394C14.1077 14.7532 15.0429 13.8014 15.707 12.584C16.3711 11.3665 16.7031 9.98306 16.7031 8.43358L16.7031 8.43357Z" fill="#DB8057"/>
</svg>
