<svg width="20" height="21" viewBox="0 0 20 21" fill="none" xmlns="http://www.w3.org/2000/svg">
<path d="M7.13478 19.1952V16.1375C7.13478 15.3569 7.77217 14.7242 8.55844 14.7242H11.4326C11.8102 14.7242 12.1723 14.8731 12.4393 15.1381C12.7063 15.4032 12.8563 15.7627 12.8563 16.1375V19.1952C12.8539 19.5197 12.9821 19.8318 13.2124 20.0621C13.4427 20.2924 13.7561 20.4219 14.0829 20.4219H16.0438C16.9596 20.4242 17.8388 20.0647 18.4872 19.4227C19.1356 18.7806 19.5 17.9089 19.5 16.9997V8.28873C19.5 7.55434 19.1721 6.85772 18.6046 6.38654L11.934 1.09774C10.7737 0.170437 9.11111 0.200377 7.98539 1.16885L1.46701 6.38654C0.872741 6.84383 0.517552 7.54251 0.5 8.28873V16.9908C0.5 18.8857 2.04738 20.4219 3.95617 20.4219H5.87229C6.55123 20.4219 7.103 19.8781 7.10792 19.2041L7.13478 19.1952Z" fill="#8F8D86"/>
</svg>
