<svg width="20" height="21" viewBox="0 0 20 21" fill="none" xmlns="http://www.w3.org/2000/svg">
<path d="M7.13478 19.1913V16.1336C7.13478 15.353 7.77217 14.7203 8.55844 14.7203H11.4326C11.8102 14.7203 12.1723 14.8692 12.4393 15.1342C12.7063 15.3993 12.8563 15.7588 12.8563 16.1336V19.1913C12.8539 19.5158 12.9821 19.8278 13.2124 20.0581C13.4427 20.2884 13.756 20.418 14.0829 20.418H16.0438C16.9596 20.4203 17.8388 20.0608 18.4872 19.4188C19.1356 18.7767 19.5 17.9049 19.5 16.9958V8.28483C19.5 7.55043 19.1721 6.85381 18.6046 6.38264L11.934 1.09384C10.7737 0.16653 9.11111 0.196471 7.98539 1.16495L1.46701 6.38264C0.872741 6.83992 0.517552 7.5386 0.5 8.28483V16.9869C0.5 18.8818 2.04738 20.418 3.95617 20.418H5.87229C6.55123 20.418 7.103 19.8742 7.10792 19.2002L7.13478 19.1913Z" fill="#DB8057"/>
</svg>
