<svg width="20" height="20" viewBox="0 0 20 20" fill="none" xmlns="http://www.w3.org/2000/svg">
<path fill-rule="evenodd" clip-rule="evenodd" d="M18.3394 5.65935C19.0094 6.17835 19.4204 6.94935 19.4904 7.78835L19.5004 7.98935V16.0984C19.5004 18.1884 17.8494 19.8884 15.7804 19.9984H13.7904C12.8394 19.9794 12.0704 19.2394 12.0004 18.3094L11.9904 18.1684V15.3094C11.9904 14.9984 11.7594 14.7394 11.4504 14.6884L11.3604 14.6784H8.6894C8.3704 14.6884 8.1104 14.9184 8.0704 15.2184L8.0604 15.3094V18.1594C8.0604 18.2184 8.0494 18.2884 8.0404 18.3384L8.0304 18.3594L8.0194 18.4284C7.9004 19.2794 7.2004 19.9284 6.3304 19.9894L6.2004 19.9984H4.4104C2.3204 19.9984 0.610397 18.3594 0.500397 16.2984V7.98935C0.509397 7.13835 0.880397 6.34835 1.5004 5.79835L7.7304 0.788355C9.0004 -0.220645 10.7804 -0.260645 12.0894 0.668355L12.2504 0.788355L18.3394 5.65935ZM18.0994 16.2584L18.1104 16.0984V7.99835C18.0994 7.56935 17.9204 7.16835 17.6104 6.86935L17.4804 6.75835L11.3804 1.87835C10.6204 1.26835 9.5404 1.23935 8.7404 1.76835L8.5894 1.87835L2.5094 6.77935C2.1604 7.03835 1.9504 7.42835 1.9004 7.83835L1.8894 7.99835V16.0984C1.8894 17.4284 2.9294 18.5184 4.2504 18.5984H6.2004C6.4204 18.5984 6.6104 18.4494 6.6394 18.2394L6.6604 18.0594L6.6704 18.0084V15.3094C6.6704 14.2394 7.4904 13.3694 8.5404 13.2884H11.3604C12.4294 13.2884 13.2994 14.1094 13.3804 15.1594V18.1684C13.3804 18.3784 13.5304 18.5594 13.7304 18.5984H15.5894C16.9294 18.5984 18.0194 17.5694 18.0994 16.2584Z" fill="white"/>
</svg>
