<svg width="295" height="40" viewBox="0 0 295 40" fill="none" xmlns="http://www.w3.org/2000/svg">
<rect x="224" y="0.5" width="71" height="39" rx="8" fill="#FCF7EF"/>
<path d="M248.506 24.64C247.815 24.64 247.18 24.5233 246.602 24.29C246.032 24.0567 245.57 23.7067 245.216 23.24C244.87 22.7733 244.688 22.2087 244.67 21.546C244.67 21.462 244.698 21.392 244.754 21.336C244.81 21.2707 244.884 21.238 244.978 21.238H246.336C246.55 21.238 246.686 21.3547 246.742 21.588C246.816 22.0733 247.012 22.4327 247.33 22.666C247.656 22.8993 248.067 23.016 248.562 23.016C249.14 23.016 249.584 22.8293 249.892 22.456C250.209 22.0733 250.368 21.5413 250.368 20.86V16.38H245.622C245.528 16.38 245.449 16.3473 245.384 16.282C245.318 16.2167 245.286 16.1327 245.286 16.03V15.036C245.286 14.9333 245.318 14.854 245.384 14.798C245.449 14.7327 245.528 14.7 245.622 14.7H252.048C252.15 14.7 252.23 14.7327 252.286 14.798C252.351 14.8633 252.384 14.9473 252.384 15.05V20.916C252.384 21.6907 252.225 22.358 251.908 22.918C251.59 23.478 251.138 23.9073 250.55 24.206C249.971 24.4953 249.29 24.64 248.506 24.64ZM257.754 24.64C256.653 24.64 255.804 24.36 255.206 23.8C254.609 23.24 254.287 22.4653 254.24 21.476L254.226 20.86L254.24 20.244C254.287 19.264 254.614 18.494 255.22 17.934C255.827 17.3647 256.672 17.08 257.754 17.08C258.828 17.08 259.668 17.3647 260.274 17.934C260.881 18.494 261.208 19.264 261.254 20.244C261.264 20.356 261.268 20.5613 261.268 20.86C261.268 21.1587 261.264 21.364 261.254 21.476C261.208 22.4653 260.886 23.24 260.288 23.8C259.691 24.36 258.846 24.64 257.754 24.64ZM257.754 23.226C258.249 23.226 258.627 23.072 258.888 22.764C259.159 22.456 259.304 22.0033 259.322 21.406C259.332 21.3127 259.336 21.1307 259.336 20.86C259.336 20.5893 259.332 20.4073 259.322 20.314C259.304 19.7167 259.159 19.264 258.888 18.956C258.618 18.6387 258.24 18.48 257.754 18.48C257.26 18.48 256.877 18.6387 256.606 18.956C256.336 19.264 256.191 19.7167 256.172 20.314L256.158 20.86L256.172 21.406C256.191 22.0033 256.336 22.456 256.606 22.764C256.877 23.072 257.26 23.226 257.754 23.226ZM263.299 16.03C263.206 16.03 263.126 15.9973 263.061 15.932C262.996 15.8667 262.963 15.7873 262.963 15.694V14.672C262.963 14.5693 262.996 14.4853 263.061 14.42C263.126 14.3547 263.206 14.322 263.299 14.322H264.587C264.69 14.322 264.774 14.3547 264.839 14.42C264.904 14.4853 264.937 14.5693 264.937 14.672V15.694C264.937 15.7873 264.9 15.8667 264.825 15.932C264.76 15.9973 264.68 16.03 264.587 16.03H263.299ZM263.355 24.5C263.262 24.5 263.182 24.4673 263.117 24.402C263.052 24.3367 263.019 24.2573 263.019 24.164V17.556C263.019 17.4533 263.052 17.374 263.117 17.318C263.182 17.2527 263.262 17.22 263.355 17.22H264.545C264.638 17.22 264.718 17.2527 264.783 17.318C264.848 17.3833 264.881 17.4627 264.881 17.556V24.164C264.881 24.2573 264.848 24.3367 264.783 24.402C264.718 24.4673 264.638 24.5 264.545 24.5H263.355ZM267.26 24.5C267.167 24.5 267.088 24.4673 267.022 24.402C266.957 24.3367 266.924 24.2573 266.924 24.164V17.556C266.924 17.4533 266.957 17.374 267.022 17.318C267.088 17.2527 267.167 17.22 267.26 17.22H268.422C268.525 17.22 268.604 17.2527 268.66 17.318C268.726 17.374 268.758 17.4533 268.758 17.556V18.13C269.328 17.43 270.107 17.08 271.096 17.08C271.955 17.08 272.636 17.36 273.14 17.92C273.644 18.48 273.896 19.25 273.896 20.23V24.164C273.896 24.2573 273.864 24.3367 273.798 24.402C273.742 24.4673 273.663 24.5 273.56 24.5H272.3C272.207 24.5 272.128 24.4673 272.062 24.402C271.997 24.3367 271.964 24.2573 271.964 24.164V20.314C271.964 19.7727 271.829 19.3527 271.558 19.054C271.297 18.746 270.919 18.592 270.424 18.592C269.948 18.592 269.566 18.746 269.276 19.054C268.987 19.362 268.842 19.782 268.842 20.314V24.164C268.842 24.2573 268.81 24.3367 268.744 24.402C268.688 24.4673 268.609 24.5 268.506 24.5H267.26Z" fill="#DB8057"/>
</svg>
