<svg width="196" height="176" viewBox="0 0 196 176" fill="none" xmlns="http://www.w3.org/2000/svg">
<g filter="url(#filter0_d_241:6950)">
<rect x="18" width="160" height="140" rx="12" fill="#F38787"/>
<path d="M127.272 64.748H124.223V36.8377C124.223 33.9558 121.892 31.6992 118.917 31.6992H77.6075C74.7303 31.6992 72.7212 33.8123 72.7212 36.8377V64.748H68.7284C68.3263 64.748 68 65.0742 68 65.4764V66.4683C68 69.6848 70.6166 72.3014 73.8331 72.3014H122.655C125.602 72.3014 128 69.9042 128 66.9577V65.4764C128 65.0742 127.674 64.748 127.272 64.748ZM74.1781 36.8377C74.1781 34.6017 75.5244 33.1561 77.6075 33.1561H118.917C121.076 33.1561 122.766 34.7733 122.766 36.8377V64.748H121.34V36.8873C121.34 35.6827 120.36 34.702 119.155 34.702H77.7894C76.5847 34.702 75.6041 35.6817 75.6041 36.8873V64.748H74.1781V36.8377ZM114.578 64.748H105.389V63.0811C105.389 62.122 106.169 61.342 107.128 61.342H112.84C113.799 61.342 114.579 62.122 114.579 63.0811V64.748H114.578ZM112.839 59.8852H111.301C112.684 59.3527 113.672 58.0186 113.672 56.4502C113.672 54.4158 112.018 52.7611 109.983 52.7611C107.949 52.7611 106.294 54.4158 106.294 56.4502C106.294 58.0186 107.282 59.3527 108.665 59.8852H107.127C105.366 59.8852 103.932 61.3195 103.932 63.0811V64.748H98.7284V51.9108H119.884V64.748H116.035V63.0811C116.034 61.3186 114.6 59.8852 112.839 59.8852ZM109.983 58.6823C108.752 58.6823 107.751 57.6811 107.751 56.4502C107.751 55.2192 108.752 54.218 109.983 54.218C111.214 54.218 112.215 55.2192 112.215 56.4502C112.215 57.6811 111.214 58.6823 109.983 58.6823ZM91.9981 64.748H82.8097V63.0811C82.8097 62.122 83.5897 61.342 84.5487 61.342H90.26C91.2191 61.342 91.9991 62.122 91.9991 63.0811V64.748H91.9981ZM90.26 59.8852H88.7225C90.1053 59.3527 91.0934 58.0186 91.0934 56.4502C91.0934 54.4158 89.4387 52.7611 87.4044 52.7611C85.37 52.7611 83.7153 54.4158 83.7153 56.4502C83.7153 58.0186 84.7034 59.3527 86.0863 59.8852H84.5487C82.7872 59.8852 81.3538 61.3195 81.3538 63.0811V64.748H77.0609V51.9108H97.2716V64.748H93.455V63.0811C93.455 61.3186 92.0216 59.8852 90.26 59.8852ZM87.4044 58.6823C86.1734 58.6823 85.1722 57.6811 85.1722 56.4502C85.1722 55.2192 86.1734 54.218 87.4044 54.218C88.6353 54.218 89.6366 55.2192 89.6366 56.4502C89.6366 57.6811 88.6353 58.6823 87.4044 58.6823ZM119.883 50.4539H116.034V49.2417C116.034 47.4802 114.6 46.0458 112.839 46.0458H111.301C112.684 45.5133 113.672 44.1792 113.672 42.6108C113.672 40.5764 112.018 38.9217 109.983 38.9217C107.949 38.9217 106.294 40.5764 106.294 42.6108C106.294 44.1792 107.282 45.5133 108.665 46.0458H107.127C105.366 46.0458 103.932 47.4802 103.932 49.2417V50.4539H98.7284V36.1598H119.156C119.557 36.1598 119.884 36.4861 119.884 36.8883V50.4539H119.883ZM114.578 50.4539H105.389V49.2417C105.389 48.2827 106.169 47.5027 107.128 47.5027H112.84C113.799 47.5027 114.579 48.2827 114.579 49.2417V50.4539H114.578ZM109.983 44.8439C108.752 44.8439 107.751 43.8427 107.751 42.6117C107.751 41.3808 108.752 40.3795 109.983 40.3795C111.214 40.3795 112.215 41.3808 112.215 42.6117C112.215 43.8427 111.214 44.8439 109.983 44.8439ZM97.2716 50.4539H93.455V49.2417C93.455 47.4802 92.0216 46.0458 90.26 46.0458H88.7225C90.1053 45.5133 91.0934 44.1792 91.0934 42.6108C91.0934 40.5764 89.4387 38.9217 87.4044 38.9217C85.37 38.9217 83.7153 40.5764 83.7153 42.6108C83.7153 44.1792 84.7034 45.5133 86.0863 46.0458H84.5487C82.7872 46.0458 81.3538 47.4802 81.3538 49.2417V50.4539H77.0609V36.8873C77.0609 36.4852 77.3881 36.1589 77.7894 36.1589H97.2716V50.4539ZM91.9981 50.4539H82.8097V49.2417C82.8097 48.2827 83.5897 47.5027 84.5487 47.5027H90.26C91.2191 47.5027 91.9991 48.2827 91.9991 49.2417V50.4539H91.9981ZM87.4044 44.8439C86.1734 44.8439 85.1722 43.8427 85.1722 42.6117C85.1722 41.3808 86.1734 40.3795 87.4044 40.3795C88.6353 40.3795 89.6366 41.3808 89.6366 42.6117C89.6366 43.8427 88.6353 44.8439 87.4044 44.8439ZM126.543 66.9577C126.543 69.1008 124.799 70.8445 122.655 70.8445H73.8331C71.42 70.8445 69.4569 68.8814 69.4569 66.4683V66.2048H73.4497H123.495H126.544V66.9577H126.543ZM92.2147 67.7967H102.601V69.2536H92.2147V67.7967Z" fill="white"/>
<path d="M53.8722 112H60.9006V110.489H55.6278V100.364H53.8722V112ZM62.767 112H64.4659V103.273H62.767V112ZM63.625 101.926C64.2102 101.926 64.6989 101.472 64.6989 100.915C64.6989 100.358 64.2102 99.8977 63.625 99.8977C63.0341 99.8977 62.5511 100.358 62.5511 100.915C62.5511 101.472 63.0341 101.926 63.625 101.926ZM74.2173 103.273H72.3935L70.1889 109.989H70.098L67.8878 103.273H66.0639L69.2344 112H71.0526L74.2173 103.273ZM79.2628 112.176C81.1662 112.176 82.5128 111.239 82.8991 109.818L81.2912 109.528C80.9844 110.352 80.2457 110.773 79.2798 110.773C77.8253 110.773 76.848 109.83 76.8026 108.148H83.0071V107.545C83.0071 104.392 81.1207 103.159 79.1435 103.159C76.7116 103.159 75.1094 105.011 75.1094 107.693C75.1094 110.403 76.6889 112.176 79.2628 112.176ZM76.8082 106.875C76.8764 105.636 77.7741 104.562 79.1548 104.562C80.473 104.562 81.3366 105.54 81.3423 106.875H76.8082ZM97.1378 104.04H98.9389C98.5469 101.773 96.6094 100.205 94.098 100.205C91.0866 100.205 88.8878 102.472 88.8878 106.188C88.8878 109.869 91.0241 112.159 94.1776 112.159C97.0014 112.159 99.0185 110.307 99.0185 107.369V106.045H94.4446V107.494H97.3196C97.2798 109.369 96.0412 110.557 94.1776 110.557C92.1264 110.557 90.6321 109.006 90.6321 106.176C90.6321 103.358 92.1378 101.807 94.1094 101.807C95.6548 101.807 96.7003 102.659 97.1378 104.04ZM101.111 112H102.81V106.67C102.81 105.528 103.69 104.705 104.895 104.705C105.247 104.705 105.645 104.767 105.781 104.807V103.182C105.611 103.159 105.276 103.142 105.06 103.142C104.037 103.142 103.162 103.722 102.844 104.659H102.753V103.273H101.111V112ZM110.615 112.176C113.075 112.176 114.683 110.375 114.683 107.676C114.683 104.96 113.075 103.159 110.615 103.159C108.155 103.159 106.547 104.96 106.547 107.676C106.547 110.375 108.155 112.176 110.615 112.176ZM110.621 110.75C109.013 110.75 108.263 109.347 108.263 107.67C108.263 106 109.013 104.58 110.621 104.58C112.217 104.58 112.967 106 112.967 107.67C112.967 109.347 112.217 110.75 110.621 110.75ZM122.108 108.381C122.114 109.864 121.011 110.568 120.057 110.568C119.006 110.568 118.278 109.807 118.278 108.619V103.273H116.58V108.824C116.58 110.989 117.767 112.114 119.443 112.114C120.756 112.114 121.648 111.42 122.051 110.489H122.142V112H123.812V103.273H122.108V108.381ZM126.095 115.273H127.794V110.642H127.896C128.203 111.199 128.828 112.17 130.419 112.17C132.533 112.17 134.067 110.477 134.067 107.653C134.067 104.824 132.51 103.159 130.402 103.159C128.783 103.159 128.197 104.148 127.896 104.688H127.754V103.273H126.095V115.273ZM127.76 107.636C127.76 105.812 128.555 104.602 130.038 104.602C131.578 104.602 132.351 105.903 132.351 107.636C132.351 109.386 131.555 110.722 130.038 110.722C128.578 110.722 127.76 109.472 127.76 107.636ZM142.51 105.403C142.158 104.045 141.095 103.159 139.209 103.159C137.237 103.159 135.839 104.199 135.839 105.744C135.839 106.983 136.589 107.807 138.226 108.17L139.703 108.494C140.544 108.682 140.936 109.057 140.936 109.602C140.936 110.278 140.214 110.807 139.101 110.807C138.084 110.807 137.43 110.369 137.226 109.511L135.584 109.761C135.868 111.307 137.152 112.176 139.112 112.176C141.22 112.176 142.68 111.057 142.68 109.477C142.68 108.244 141.896 107.483 140.294 107.114L138.908 106.795C137.947 106.568 137.533 106.244 137.538 105.653C137.533 104.983 138.26 104.506 139.226 104.506C140.283 104.506 140.771 105.091 140.97 105.676L142.51 105.403Z" fill="white"/>
</g>
<defs>
<filter id="filter0_d_241:6950" x="0" y="0" width="196" height="176" filterUnits="userSpaceOnUse" color-interpolation-filters="sRGB">
<feFlood flood-opacity="0" result="BackgroundImageFix"/>
<feColorMatrix in="SourceAlpha" type="matrix" values="0 0 0 0 0 0 0 0 0 0 0 0 0 0 0 0 0 0 127 0" result="hardAlpha"/>
<feOffset dy="18"/>
<feGaussianBlur stdDeviation="9"/>
<feColorMatrix type="matrix" values="0 0 0 0 0.198872 0 0 0 0 0.266625 0 0 0 0 0.329167 0 0 0 0.08 0"/>
<feBlend mode="normal" in2="BackgroundImageFix" result="effect1_dropShadow_241:6950"/>
<feBlend mode="normal" in="SourceGraphic" in2="effect1_dropShadow_241:6950" result="shape"/>
</filter>
</defs>
</svg>
