<svg width="110" height="110" viewBox="0 0 110 110" fill="none" xmlns="http://www.w3.org/2000/svg">
<path fill-rule="evenodd" clip-rule="evenodd" d="M110 55C110 69.5869 104.205 83.5764 93.8909 93.8909C83.5764 104.205 69.5869 110 55 110C40.4131 110 26.4236 104.205 16.1091 93.8909C5.79463 83.5764 0 69.5869 0 55C0 40.4131 5.79463 26.4236 16.1091 16.1091C26.4236 5.79463 40.4131 0 55 0C69.5869 0 83.5764 5.79463 93.8909 16.1091C104.205 26.4236 110 40.4131 110 55ZM82.7062 34.1687C82.2152 33.6794 81.6304 33.2941 80.987 33.0359C80.3436 32.7776 79.6547 32.6518 78.9616 32.666C78.2684 32.6801 77.5853 32.8338 76.9529 33.118C76.3205 33.4022 75.752 33.811 75.2812 34.32L51.4044 64.7419L37.015 50.3456C36.0375 49.4348 34.7447 48.939 33.4089 48.9625C32.0731 48.9861 30.7986 49.5273 29.8538 50.472C28.9091 51.4167 28.368 52.6912 28.3444 54.027C28.3209 55.3629 28.8167 56.6557 29.7275 57.6331L47.9187 75.8312C48.4088 76.3204 48.9924 76.7059 49.6346 76.9646C50.2769 77.2234 50.9647 77.3501 51.657 77.3373C52.3493 77.3244 53.0319 77.1723 53.6642 76.8899C54.2964 76.6076 54.8653 76.2007 55.3369 75.6937L82.7819 41.3875C83.7175 40.4147 84.2344 39.1138 84.2215 37.7641C84.2087 36.4144 83.6671 35.1236 82.7131 34.1687H82.7062Z" fill="#869EBC"/>
</svg>
