<svg width="6" height="20" viewBox="0 0 6 20" fill="none" xmlns="http://www.w3.org/2000/svg">
<path d="M2.99442 7.80488C4.1849 7.80488 5.13728 8.78049 5.13728 10C5.13728 11.2195 4.1849 12.1951 2.99442 12.1951C1.80394 12.1951 0.851562 11.2195 0.851562 10C0.851563 8.78049 1.80394 7.80488 2.99442 7.80488ZM0.851562 2.19512C0.851562 3.41463 1.80394 4.39024 2.99442 4.39024C4.1849 4.39024 5.13728 3.41463 5.13728 2.19512C5.13728 0.97561 4.1849 0 2.99442 0C1.80394 0 0.851563 0.97561 0.851562 2.19512ZM0.851562 17.8049C0.851562 19.0244 1.80394 20 2.99442 20C4.1849 20 5.13728 19.0244 5.13728 17.8049C5.13728 16.5854 4.1849 15.6098 2.99442 15.6098C1.80394 15.6098 0.851563 16.5854 0.851562 17.8049Z" fill="#8F8D86"/>
</svg>
