<svg width="24" height="6" viewBox="0 0 24 6" fill="none" xmlns="http://www.w3.org/2000/svg">
<path fill-rule="evenodd" clip-rule="evenodd" d="M2.88 5.76C4.47058 5.76 5.76 4.47058 5.76 2.88C5.76 1.28942 4.47058 0 2.88 0C1.28942 0 0 1.28942 0 2.88C0 4.47058 1.28942 5.76 2.88 5.76ZM12.48 5.76C14.0706 5.76 15.36 4.47058 15.36 2.88C15.36 1.28942 14.0706 0 12.48 0C10.8894 0 9.6 1.28942 9.6 2.88C9.6 4.47058 10.8894 5.76 12.48 5.76ZM24 2.88C24 4.47058 22.7106 5.76 21.12 5.76C19.5294 5.76 18.24 4.47058 18.24 2.88C18.24 1.28942 19.5294 0 21.12 0C22.7106 0 24 1.28942 24 2.88Z" fill="#D6D9E0"/>
</svg>
