<svg width="104" height="52" viewBox="0 0 104 52" fill="none" xmlns="http://www.w3.org/2000/svg">
<g clip-path="url(#clip0_320_5806)">
<path fill-rule="evenodd" clip-rule="evenodd" d="M104.046 11.2334C104.046 8.84094 102.873 6.95312 100.632 6.95312C98.3813 6.95312 97.0195 8.84094 97.0195 11.2148C97.0195 14.0278 98.6272 15.4483 100.935 15.4483C102.06 15.4483 102.911 15.1959 103.554 14.8408V12.9717C102.911 13.2895 102.174 13.4857 101.237 13.4857C100.32 13.4857 99.5066 13.168 99.4026 12.0652H104.027C104.027 11.9437 104.046 11.4577 104.046 11.2334ZM99.3742 10.3456C99.3742 9.28953 100.027 8.85029 100.623 8.85029C101.199 8.85029 101.814 9.28953 101.814 10.3456H99.3742Z" fill="#8792A2"/>
<path fill-rule="evenodd" clip-rule="evenodd" d="M93.3695 6.95312C92.4427 6.95312 91.8469 7.38302 91.516 7.68208L91.393 7.10265H89.3125V17.9997L91.6767 17.5043L91.6862 14.8595C92.0266 15.1025 92.5278 15.4483 93.3601 15.4483C95.0528 15.4483 96.5943 14.1025 96.5943 11.14C96.5848 8.42973 95.0244 6.95312 93.3695 6.95312ZM92.8021 13.3922C92.2442 13.3922 91.9131 13.196 91.6862 12.953L91.6767 9.48579C91.9226 9.21477 92.2631 9.02785 92.8021 9.02785C93.6627 9.02785 94.2584 9.98111 94.2584 11.2054C94.2584 12.4577 93.6722 13.3922 92.8021 13.3922Z" fill="#8792A2"/>
<path fill-rule="evenodd" clip-rule="evenodd" d="M86.0586 6.40183L88.4323 5.89716V4L86.0586 4.49532V6.40183Z" fill="#8792A2"/>
<path d="M88.4323 7.11133H86.0586V15.2887H88.4323V7.11133Z" fill="#8792A2"/>
<path fill-rule="evenodd" clip-rule="evenodd" d="M83.5143 7.80381L83.363 7.11223H81.3203V15.2897H83.6845V9.74769C84.2425 9.02808 85.1882 9.15892 85.4813 9.26172V7.11223C85.1787 7.00008 84.0723 6.79448 83.5143 7.80381Z" fill="#8792A2"/>
<path fill-rule="evenodd" clip-rule="evenodd" d="M78.7857 5.08398L76.4782 5.56996L76.4688 13.0558C76.4688 14.439 77.5184 15.4576 78.9181 15.4576C79.6935 15.4576 80.261 15.3175 80.5731 15.1493V13.2521C80.2705 13.3736 78.7762 13.8034 78.7762 12.4203V9.10261H80.5731V7.11199H78.7762L78.7857 5.08398Z" fill="#8792A2"/>
<path fill-rule="evenodd" clip-rule="evenodd" d="M72.3926 9.4858C72.3926 9.12131 72.6952 8.98113 73.1964 8.98113C73.9151 8.98113 74.823 9.19608 75.5417 9.57924V7.38302C74.7568 7.07462 73.9814 6.95312 73.1964 6.95312C71.2767 6.95312 70 7.94376 70 9.59794C70 12.1773 73.5936 11.7661 73.5936 12.8782C73.5936 13.3082 73.2153 13.4483 72.6858 13.4483C71.9008 13.4483 70.8984 13.1306 70.104 12.7007V14.925C70.9835 15.2988 71.8725 15.4577 72.6858 15.4577C74.6528 15.4577 76.0051 14.495 76.0051 12.8222C75.9957 10.0372 72.3926 10.5325 72.3926 9.4858Z" fill="#8792A2"/>
</g>
<path d="M0.779297 15H2.0918V12.1113H3.92578C5.58398 12.1113 6.73242 10.9805 6.73242 9.32812V9.31641C6.73242 7.6582 5.58398 6.54492 3.92578 6.54492H0.779297V15ZM3.59766 7.65234C4.74023 7.65234 5.39648 8.26758 5.39648 9.32227V9.33398C5.39648 10.3945 4.74023 11.0098 3.59766 11.0098H2.0918V7.65234H3.59766ZM10.2874 15.123C12.0511 15.123 13.2112 13.9043 13.2112 11.918V11.9062C13.2112 9.93164 12.0394 8.71875 10.2816 8.71875C8.52961 8.71875 7.36359 9.9375 7.36359 11.9062V11.918C7.36359 13.8984 8.51789 15.123 10.2874 15.123ZM10.2933 14.0625C9.30305 14.0625 8.65852 13.2832 8.65852 11.918V11.9062C8.65852 10.5586 9.30891 9.7793 10.2816 9.7793C11.2718 9.7793 11.9163 10.5586 11.9163 11.9062V11.918C11.9163 13.2773 11.2835 14.0625 10.2933 14.0625ZM15.5592 15H16.8659L18.1491 10.3828H18.1784L19.4733 15H20.7916L22.4791 8.83594H21.2252L20.1002 13.6875H20.0709L18.7819 8.83594H17.5631L16.2799 13.6875H16.2565L15.1315 8.83594H13.8659L15.5592 15ZM26.0283 15.123C27.5224 15.123 28.4716 14.2324 28.6709 13.2539L28.6826 13.1895H27.4814L27.4638 13.2363C27.3056 13.6992 26.8076 14.0859 26.0576 14.0859C25.0498 14.0859 24.4111 13.4062 24.3877 12.2402H28.7529V11.8125C28.7529 9.96094 27.6923 8.71875 25.9638 8.71875C24.2353 8.71875 23.122 10.0078 23.122 11.9355V11.9414C23.122 13.8867 24.2177 15.123 26.0283 15.123ZM25.9697 9.75586C26.7959 9.75586 27.3935 10.2773 27.499 11.3438H24.4052C24.5166 10.3125 25.1494 9.75586 25.9697 9.75586ZM29.9173 15H31.1829V11.3262C31.1829 10.4062 31.6868 9.87305 32.5012 9.87305C32.7473 9.87305 32.97 9.90234 33.0696 9.94336V8.76562C32.97 8.74805 32.8118 8.71875 32.6302 8.71875C31.927 8.71875 31.4114 9.16992 31.2122 9.89062H31.1829V8.83594H29.9173V15ZM36.3961 15.123C37.8902 15.123 38.8395 14.2324 39.0387 13.2539L39.0504 13.1895H37.8492L37.8316 13.2363C37.6734 13.6992 37.1754 14.0859 36.4254 14.0859C35.4176 14.0859 34.7789 13.4062 34.7555 12.2402H39.1207V11.8125C39.1207 9.96094 38.0602 8.71875 36.3316 8.71875C34.6031 8.71875 33.4898 10.0078 33.4898 11.9355V11.9414C33.4898 13.8867 34.5855 15.123 36.3961 15.123ZM36.3375 9.75586C37.1637 9.75586 37.7613 10.2773 37.8668 11.3438H34.773C34.8844 10.3125 35.5172 9.75586 36.3375 9.75586ZM42.5878 15.123C43.4726 15.123 44.1523 14.6777 44.5214 13.957H44.5448V15H45.8163V6.54492H44.5448V9.88477H44.5214C44.1523 9.1582 43.4491 8.71875 42.5761 8.71875C41.0292 8.71875 40.0097 9.94922 40.0097 11.9121V11.918C40.0097 13.8809 41.0175 15.123 42.5878 15.123ZM42.9218 14.0332C41.9198 14.0332 41.3046 13.2305 41.3046 11.918V11.9121C41.3046 10.6113 41.9257 9.80273 42.9218 9.80273C43.871 9.80273 44.5507 10.6348 44.5507 11.9121V11.918C44.5507 13.2012 43.8769 14.0332 42.9218 14.0332ZM53.19 15.123C54.7545 15.123 55.7681 13.8809 55.7681 11.918V11.9121C55.7681 9.94922 54.7486 8.71875 53.2017 8.71875C52.3287 8.71875 51.6255 9.1582 51.2564 9.88477H51.2271V6.54492H49.9615V15H51.2271V13.957H51.2564C51.6197 14.6777 52.3052 15.123 53.19 15.123ZM52.856 14.0332C51.8951 14.0332 51.2212 13.2012 51.2212 11.918V11.9121C51.2212 10.6348 51.9009 9.80273 52.856 9.80273C53.8521 9.80273 54.4732 10.6113 54.4732 11.9121V11.918C54.4732 13.2305 53.8521 14.0332 52.856 14.0332ZM57.4188 17.0566C58.6259 17.0566 59.2704 16.5645 59.7274 15.2871L62.0243 8.83594H60.6884L59.1356 13.8516H59.0946L57.5419 8.83594H56.1708L58.4149 15.0059L58.3095 15.2988C58.0985 15.8965 57.7704 16.0547 57.1727 16.0547C57.0028 16.0547 56.8563 16.0312 56.7567 16.0078V16.998C56.9091 17.0273 57.1727 17.0566 57.4188 17.0566Z" fill="#8792A2"/>
<path d="M6.37695 45H7.68945V37.6758H10.2734V36.5449H3.78711V37.6758H6.37695V45ZM12.4925 45.123C13.9866 45.123 14.9359 44.2324 15.1351 43.2539L15.1468 43.1895H13.9456L13.928 43.2363C13.7698 43.6992 13.2718 44.0859 12.5218 44.0859C11.514 44.0859 10.8753 43.4062 10.8519 42.2402H15.2171V41.8125C15.2171 39.9609 14.1566 38.7188 12.428 38.7188C10.6995 38.7188 9.58625 40.0078 9.58625 41.9355V41.9414C9.58625 43.8867 10.682 45.123 12.4925 45.123ZM12.4339 39.7559C13.2601 39.7559 13.8577 40.2773 13.9632 41.3438H10.8695C10.9808 40.3125 11.6136 39.7559 12.4339 39.7559ZM16.3815 45H17.6471V41.3262C17.6471 40.4062 18.151 39.873 18.9655 39.873C19.2116 39.873 19.4342 39.9023 19.5338 39.9434V38.7656C19.4342 38.748 19.276 38.7188 19.0944 38.7188C18.3912 38.7188 17.8756 39.1699 17.6764 39.8906H17.6471V38.8359H16.3815V45ZM20.499 45H21.7646V41.1914C21.7646 40.3945 22.2978 39.8027 23.0478 39.8027C23.7627 39.8027 24.2138 40.2598 24.2138 40.9746V45H25.456V41.1445C25.456 40.3652 25.9775 39.8027 26.7275 39.8027C27.4775 39.8027 27.9052 40.2656 27.9052 41.0684V45H29.1767V40.7637C29.1767 39.5273 28.3798 38.7188 27.1611 38.7188C26.2822 38.7188 25.5556 39.1816 25.2392 39.9316H25.2099C24.9638 39.1582 24.3427 38.7188 23.4931 38.7188C22.6845 38.7188 22.0576 39.1465 21.7939 39.791H21.7646V38.8359H20.499V45ZM32.8899 45.123C34.343 45.123 35.3977 44.3496 35.3977 43.2246V43.2188C35.3977 42.334 34.9173 41.8359 33.6575 41.543L32.6555 41.3145C31.9934 41.1562 31.7415 40.8984 31.7415 40.5176V40.5117C31.7415 40.0195 32.1692 39.6973 32.8489 39.6973C33.5637 39.6973 33.9856 40.0723 34.0618 40.6113L34.0677 40.6523H35.2571L35.2512 40.582C35.1868 39.5332 34.3079 38.7188 32.8489 38.7188C31.4309 38.7188 30.47 39.4746 30.47 40.5762V40.582C30.47 41.4785 31.0501 42.041 32.222 42.3105L33.2298 42.5391C33.8919 42.6973 34.1145 42.9258 34.1145 43.3242V43.3301C34.1145 43.8281 33.6575 44.1445 32.8958 44.1445C32.1165 44.1445 31.6946 43.8105 31.5774 43.2422L31.5657 43.1836H30.3118L30.3177 43.2363C30.4466 44.3613 31.3489 45.123 32.8899 45.123Z" fill="#8792A2"/>
<path d="M61.2793 45H62.5918V42.1113H64.4258C66.084 42.1113 67.2324 40.9805 67.2324 39.3281V39.3164C67.2324 37.6582 66.084 36.5449 64.4258 36.5449H61.2793V45ZM64.0977 37.6523C65.2402 37.6523 65.8965 38.2676 65.8965 39.3223V39.334C65.8965 40.3945 65.2402 41.0098 64.0977 41.0098H62.5918V37.6523H64.0977ZM68.4085 45H69.6741V41.3262C69.6741 40.4062 70.178 39.873 70.9925 39.873C71.2386 39.873 71.4612 39.9023 71.5609 39.9434V38.7656C71.4612 38.748 71.303 38.7188 71.1214 38.7188C70.4183 38.7188 69.9027 39.1699 69.7034 39.8906H69.6741V38.8359H68.4085V45ZM73.2116 37.8867C73.6276 37.8867 73.9498 37.5586 73.9498 37.1602C73.9498 36.7559 73.6276 36.4277 73.2116 36.4277C72.8014 36.4277 72.4733 36.7559 72.4733 37.1602C72.4733 37.5586 72.8014 37.8867 73.2116 37.8867ZM72.5787 45H73.8444V38.8359H72.5787V45ZM77.0244 45H78.3837L80.5927 38.8359H79.2744L77.7275 43.7637H77.6982L76.1513 38.8359H74.8037L77.0244 45ZM83.1809 45.1113C83.9954 45.1113 84.7102 44.6895 85.0677 44.0273H85.0911V45H86.3626V40.752C86.3626 39.5156 85.4075 38.7188 83.9016 38.7188C82.3841 38.7188 81.4641 39.5332 81.3762 40.5938L81.3704 40.6582H82.5657L82.5774 40.6055C82.6829 40.1133 83.1341 39.7676 83.8665 39.7676C84.6516 39.7676 85.0911 40.1777 85.0911 40.8574V41.3203L83.4153 41.4199C81.9563 41.5078 81.1243 42.1641 81.1243 43.2363V43.248C81.1243 44.3555 81.9505 45.1113 83.1809 45.1113ZM82.4016 43.2188V43.207C82.4016 42.6855 82.8235 42.3516 83.5852 42.3047L85.0911 42.2109V42.6914C85.0911 43.4941 84.4173 44.0977 83.5266 44.0977C82.847 44.0977 82.4016 43.7578 82.4016 43.2188ZM90.4215 45.123C91.9039 45.123 92.9352 44.1738 93.0699 42.9375L93.0758 42.8965H91.857L91.8512 42.9434C91.6988 43.6113 91.2008 44.0625 90.4215 44.0625C89.443 44.0625 88.7926 43.2715 88.7926 41.9238V41.918C88.7926 40.5996 89.4312 39.7793 90.4156 39.7793C91.2418 39.7793 91.7105 40.2891 91.8453 40.8926L91.857 40.9395H93.0641L93.0582 40.8984C92.9527 39.7383 91.9918 38.7188 90.4039 38.7188C88.6461 38.7188 87.4977 39.9551 87.4977 41.9062V41.9121C87.4977 43.8867 88.6227 45.123 90.4215 45.123ZM94.8788 47.0566C96.0859 47.0566 96.7304 46.5645 97.1874 45.2871L99.4843 38.8359H98.1484L96.5956 43.8516H96.5546L95.0019 38.8359H93.6308L95.8749 45.0059L95.7695 45.2988C95.5585 45.8965 95.2304 46.0547 94.6327 46.0547C94.4628 46.0547 94.3163 46.0312 94.2167 46.0078V46.998C94.3691 47.0273 94.6327 47.0566 94.8788 47.0566Z" fill="#8792A2"/>
<defs>
<clipPath id="clip0_320_5806">
<rect width="34" height="14" fill="white" transform="translate(70 4)"/>
</clipPath>
</defs>
</svg>
