<svg width="16" height="15" viewBox="0 0 16 15" fill="none" xmlns="http://www.w3.org/2000/svg">
<path d="M14.9633 5.20743L10.5002 4.5588L8.50509 0.514069C8.4506 0.403327 8.36095 0.313678 8.25021 0.259186C7.97247 0.122077 7.63497 0.236335 7.4961 0.514069L5.50099 4.5588L1.0379 5.20743C0.914855 5.22501 0.802355 5.28301 0.716223 5.3709C0.612093 5.47793 0.554712 5.62192 0.55669 5.77123C0.558668 5.92054 0.619841 6.06296 0.726769 6.16719L3.95587 9.31544L3.19298 13.7609C3.17509 13.8644 3.18653 13.9707 3.22601 14.068C3.26549 14.1652 3.33143 14.2494 3.41634 14.3111C3.50126 14.3728 3.60175 14.4094 3.70644 14.4169C3.81112 14.4243 3.9158 14.4023 4.00861 14.3533L8.0006 12.2545L11.9926 14.3533C12.1016 14.4113 12.2281 14.4307 12.3494 14.4096C12.6553 14.3568 12.8609 14.0668 12.8082 13.7609L12.0453 9.31544L15.2744 6.16719C15.3623 6.08106 15.4203 5.96856 15.4379 5.84551C15.4854 5.5379 15.2709 5.25313 14.9633 5.20743Z" fill="#F6CE68"/>
</svg>
