<svg width="24" height="25" viewBox="0 0 24 25" fill="none" xmlns="http://www.w3.org/2000/svg">
<path fill-rule="evenodd" clip-rule="evenodd" d="M12.573 4.91797H6.304C3.73889 4.91797 2 6.63706 2 9.10597V16.121C2 18.5899 3.73889 20.309 6.304 20.309H12.573C14.9912 20.309 16.6808 18.7735 16.861 16.5248L19.5079 17.6067L19.6405 17.6551C20.7923 18.0269 21.9997 17.1707 21.9997 15.9335V9.29447L21.9944 9.15345C21.9034 7.94678 20.6537 7.1527 19.5083 7.62005L16.8611 8.70207C16.6814 6.45184 14.9951 4.91797 12.573 4.91797ZM15.377 9.7855C15.3763 9.80359 15.3763 9.82176 15.377 9.83997V15.387C15.3763 15.4052 15.3763 15.4233 15.377 15.4414V16.121C15.377 17.7548 14.3092 18.809 12.573 18.809H6.304C4.5635 18.809 3.5 17.7576 3.5 16.121V9.10597C3.5 7.46936 4.5635 6.41797 6.304 6.41797H12.573C14.3129 6.41797 15.377 7.46975 15.377 9.10597V9.7855ZM16.877 14.9109V10.316L20.0755 9.00872L20.1433 8.98956C20.3243 8.96018 20.4997 9.09967 20.4997 9.29447V15.9335L20.4918 16.0036C20.4507 16.1824 20.2556 16.2917 20.0751 16.2181L16.877 14.9109Z" fill="#19343A"/>
</svg>
