<svg width="21" height="18" viewBox="0 0 21 18" fill="none" xmlns="http://www.w3.org/2000/svg">
<path d="M15.329 13C13.728 13 12.883 12.324 12.204 11.781C11.637 11.328 11.227 11 10.326 11C9.42803 11 9.03903 11.311 8.45203 11.78C7.77303 12.324 6.92803 13 5.32703 13C3.72603 13 2.88303 12.324 2.20403 11.78C1.61703 11.311 1.22903 11 0.332031 11V16C0.332031 17.103 1.22903 18 2.33203 18H18.332C19.435 18 20.332 17.103 20.332 16V11C19.433 11 19.044 11.311 18.456 11.781C17.776 12.324 16.931 13 15.329 13ZM17.332 3H11.332V0H9.33203V3H3.33203C1.67803 3 0.332031 4.346 0.332031 6V9C1.93203 9 2.77503 9.676 3.45403 10.22C4.04103 10.689 4.42903 11 5.32703 11C6.22603 11 6.61403 10.689 7.20203 10.219C7.88103 9.676 8.72603 9 10.326 9C11.928 9 12.773 9.676 13.453 10.219C14.041 10.689 14.43 11 15.329 11C16.229 11 16.64 10.672 17.207 10.219C17.886 9.676 18.731 9 20.332 9V6C20.332 4.346 18.986 3 17.332 3Z" fill="#8F8D86"/>
</svg>
