<svg width="16" height="16" viewBox="0 0 16 16" fill="none" xmlns="http://www.w3.org/2000/svg">
<path d="M14.3352 2.66669H12.8907V3.55558H14.2241V13.3334H1.77963V3.55558H3.11296V2.66669H1.66852C1.56462 2.66842 1.46209 2.69061 1.36677 2.73198C1.27145 2.77335 1.18522 2.83309 1.11299 2.90779C1.04076 2.9825 0.98396 3.0707 0.945826 3.16735C0.907692 3.26401 0.888973 3.36724 0.890739 3.47113V13.4178C0.888973 13.5217 0.907692 13.6249 0.945826 13.7216C0.98396 13.8182 1.04076 13.9064 1.11299 13.9811C1.18522 14.0558 1.27145 14.1156 1.36677 14.1569C1.46209 14.1983 1.56462 14.2205 1.66852 14.2222H14.3352C14.4391 14.2205 14.5416 14.1983 14.6369 14.1569C14.7322 14.1156 14.8185 14.0558 14.8907 13.9811C14.9629 13.9064 15.0197 13.8182 15.0579 13.7216C15.096 13.6249 15.1147 13.5217 15.113 13.4178V3.47113C15.1147 3.36724 15.096 3.26401 15.0579 3.16735C15.0197 3.0707 14.9629 2.9825 14.8907 2.90779C14.8185 2.83309 14.7322 2.77335 14.6369 2.73198C14.5416 2.69061 14.4391 2.66842 14.3352 2.66669Z" fill="#DB8057"/>
<path d="M3.55469 6.22223H4.44358V7.11112H3.55469V6.22223Z" fill="#DB8057"/>
<path d="M6.22266 6.22223H7.11155V7.11112H6.22266V6.22223Z" fill="#DB8057"/>
<path d="M8.89062 6.22223H9.77951V7.11112H8.89062V6.22223Z" fill="#DB8057"/>
<path d="M11.5547 6.22223H12.4436V7.11112H11.5547V6.22223Z" fill="#DB8057"/>
<path d="M3.55469 8.44446H4.44358V9.33335H3.55469V8.44446Z" fill="#DB8057"/>
<path d="M6.22266 8.44446H7.11155V9.33335H6.22266V8.44446Z" fill="#DB8057"/>
<path d="M8.89062 8.44446H9.77951V9.33335H8.89062V8.44446Z" fill="#DB8057"/>
<path d="M11.5547 8.44446H12.4436V9.33335H11.5547V8.44446Z" fill="#DB8057"/>
<path d="M3.55469 10.6667H4.44358V11.5556H3.55469V10.6667Z" fill="#DB8057"/>
<path d="M6.22266 10.6667H7.11155V11.5556H6.22266V10.6667Z" fill="#DB8057"/>
<path d="M8.89062 10.6667H9.77951V11.5556H8.89062V10.6667Z" fill="#DB8057"/>
<path d="M11.5547 10.6667H12.4436V11.5556H11.5547V10.6667Z" fill="#DB8057"/>
<path d="M4.44444 4.44447C4.56232 4.44447 4.67536 4.39765 4.75871 4.3143C4.84206 4.23095 4.88889 4.1179 4.88889 4.00003V1.33336C4.88889 1.21549 4.84206 1.10244 4.75871 1.01909C4.67536 0.935741 4.56232 0.888916 4.44444 0.888916C4.32657 0.888916 4.21352 0.935741 4.13017 1.01909C4.04683 1.10244 4 1.21549 4 1.33336V4.00003C4 4.1179 4.04683 4.23095 4.13017 4.3143C4.21352 4.39765 4.32657 4.44447 4.44444 4.44447Z" fill="#DB8057"/>
<path d="M11.5538 4.44447C11.6717 4.44447 11.7847 4.39765 11.8681 4.3143C11.9514 4.23095 11.9983 4.1179 11.9983 4.00003V1.33336C11.9983 1.21549 11.9514 1.10244 11.8681 1.01909C11.7847 0.935741 11.6717 0.888916 11.5538 0.888916C11.4359 0.888916 11.3229 0.935741 11.2395 1.01909C11.1562 1.10244 11.1094 1.21549 11.1094 1.33336V4.00003C11.1094 4.1179 11.1562 4.23095 11.2395 4.3143C11.3229 4.39765 11.4359 4.44447 11.5538 4.44447Z" fill="#DB8057"/>
<path d="M5.77734 2.66669H10.2218V3.55558H5.77734V2.66669Z" fill="#DB8057"/>
</svg>
