<svg width="16" height="18" viewBox="0 0 16 18" fill="none" xmlns="http://www.w3.org/2000/svg">
<path fill-rule="evenodd" clip-rule="evenodd" d="M11.6822 1.16917C11.644 0.885392 11.4026 0.666668 11.1105 0.666668C10.7919 0.666668 10.5336 0.926967 10.5336 1.24806V1.89085H5.47345V1.24806L5.46819 1.16917C5.42998 0.885392 5.1886 0.666668 4.89653 0.666668C4.57791 0.666668 4.31961 0.926967 4.31961 1.24806V1.90529C1.95546 2.06811 0.5 3.59993 0.5 6.07149V13.0867C0.5 15.7394 2.13195 17.3333 4.74688 17.3333H11.253C13.8711 17.3333 15.4999 15.766 15.4999 13.1454V6.07149C15.5075 3.59906 14.0567 2.06766 11.6874 1.90522V1.24806L11.6822 1.16917ZM10.5336 3.05364V3.79906L10.5389 3.87795C10.5771 4.16173 10.8184 4.38045 11.1105 4.38045C11.4291 4.38045 11.6874 4.12015 11.6874 3.79906V3.07083C13.4112 3.21425 14.3516 4.25229 14.3461 6.06971V6.4064H1.65384V6.07149C1.65384 4.25521 2.59938 3.21498 4.31961 3.07094V3.79906L4.32488 3.87795C4.36308 4.16173 4.60446 4.38045 4.89653 4.38045C5.21516 4.38045 5.47345 4.12015 5.47345 3.79906V3.05364H10.5336ZM1.65384 7.56919V13.0867C1.65384 15.0889 2.76126 16.1705 4.74687 16.1705H11.253C13.2455 16.1705 14.3461 15.1115 14.3461 13.1454L14.3461 7.56919H1.65384ZM12.001 10.0153C12.001 9.69417 11.7427 9.43387 11.4241 9.43387L11.3387 9.43918C11.0571 9.47768 10.84 9.72093 10.84 10.0153C10.84 10.3364 11.0983 10.5967 11.4241 10.5967L11.5024 10.5914C11.784 10.5529 12.001 10.3096 12.001 10.0153ZM8.01065 9.43387C8.32928 9.43387 8.58757 9.69417 8.58757 10.0153C8.58757 10.3096 8.37053 10.5529 8.08894 10.5914L8.01065 10.5967C7.6849 10.5967 7.4266 10.3364 7.4266 10.0153C7.4266 9.72093 7.64364 9.47768 7.92524 9.43918L8.01065 9.43387ZM5.16702 10.0153C5.16702 9.69417 4.90873 9.43387 4.5901 9.43387L4.50469 9.43918C4.2231 9.47768 4.00605 9.72093 4.00605 10.0153C4.00605 10.3364 4.26435 10.5967 4.58298 10.5967L4.66839 10.5914C4.94998 10.5529 5.16702 10.3096 5.16702 10.0153ZM11.4241 12.4467C11.7427 12.4467 12.001 12.707 12.001 13.0281C12.001 13.3224 11.784 13.5657 11.5024 13.6042L11.4241 13.6095C11.0983 13.6095 10.84 13.3492 10.84 13.0281C10.84 12.7337 11.0571 12.4905 11.3387 12.452L11.4241 12.4467ZM8.58757 13.0281C8.58757 12.707 8.32928 12.4467 8.01065 12.4467L7.92524 12.452C7.64364 12.4905 7.4266 12.7337 7.4266 13.0281C7.4266 13.3492 7.6849 13.6095 8.01065 13.6095L8.08894 13.6042C8.37053 13.5657 8.58757 13.3224 8.58757 13.0281ZM4.5901 12.4467C4.90873 12.4467 5.16702 12.707 5.16702 13.0281C5.16702 13.3224 4.94998 13.5657 4.66839 13.6042L4.58298 13.6095C4.26435 13.6095 4.00605 13.3492 4.00605 13.0281C4.00605 12.7337 4.2231 12.4905 4.50469 12.452L4.5901 12.4467Z" fill="#8F8D86"/>
</svg>
