<svg width="22" height="18" viewBox="0 0 22 18" fill="none" xmlns="http://www.w3.org/2000/svg">
<path d="M17.9266 1.42498C18.2788 1.0897 18.7474 0.904349 19.2337 0.908028C19.7199 0.911707 20.1857 1.10413 20.5327 1.4447C20.8798 1.78527 21.081 2.24734 21.0938 2.73342C21.1067 3.21949 20.9302 3.69155 20.6016 4.04998L10.6266 16.525C10.4551 16.7097 10.2481 16.858 10.0179 16.9609C9.78781 17.0638 9.53929 17.1193 9.28724 17.1239C9.03519 17.1286 8.78479 17.0824 8.55101 16.9881C8.31722 16.8937 8.10486 16.7533 7.92661 16.575L1.31161 9.95998C1.1274 9.78833 0.979642 9.58133 0.877162 9.35133C0.774683 9.12133 0.719578 8.87305 0.715136 8.62129C0.710694 8.36953 0.757006 8.11946 0.851308 7.88599C0.945611 7.65252 1.08597 7.44043 1.26402 7.26239C1.44207 7.08434 1.65415 6.94398 1.88762 6.84968C2.12109 6.75537 2.37116 6.70906 2.62292 6.7135C2.87468 6.71794 3.12296 6.77305 3.35296 6.87553C3.58296 6.97801 3.78996 7.12576 3.96161 7.30998L9.19662 12.5425L17.8791 1.47998C17.8947 1.46073 17.9114 1.44237 17.9291 1.42498H17.9266Z" fill="#869EBC"/>
</svg>
