<svg width="18" height="17" viewBox="0 0 18 17" fill="none" xmlns="http://www.w3.org/2000/svg">
<path d="M0 1.1843C0.101074 0.955932 0.29133 0.866318 0.535838 0.834519C0.830884 0.796216 1.12296 0.732619 1.41652 0.681307C1.81115 0.612651 2.00661 0.753577 2.07572 1.14383C2.19315 1.80293 2.31652 2.46131 2.44434 3.16016C2.52684 3.06837 2.58629 3.00189 2.64649 2.9354C3.95822 1.48278 5.57837 0.522314 7.53369 0.171084C10.6083 -0.381779 13.2964 0.403069 15.514 2.55815C16.8941 3.89947 17.728 5.53927 17.9368 7.43274C18.2884 10.6126 17.1736 13.2317 14.6066 15.2364C13.4584 16.1333 12.1333 16.7122 10.6737 16.9015C7.19554 17.3532 4.34467 16.2453 2.20058 13.5215C1.38307 12.4829 0.892568 11.2934 0.6436 10.0099C0.581173 9.68611 0.720892 9.47941 1.05681 9.41799C1.41874 9.3515 1.78216 9.29079 2.14707 9.23659C2.4109 9.19684 2.60264 9.32982 2.67845 9.59866C2.77358 9.93833 2.83675 10.2888 2.95863 10.6191C3.6327 12.4417 4.88497 13.7419 6.72213 14.4993C7.72841 14.9141 8.78448 15.0622 9.86804 14.9668C11.2719 14.8433 12.5175 14.3309 13.5899 13.4347C14.8147 12.4121 15.5728 11.1272 15.8336 9.57915C16.3546 6.48167 14.6386 3.53668 11.613 2.44107C9.46301 1.66201 7.39917 1.92362 5.48101 3.16232C5.00091 3.47236 4.57729 3.84527 4.16928 4.31069C4.5223 4.25071 4.82849 4.19867 5.13468 4.14664C5.52634 4.08015 5.918 4.01005 6.31041 3.94862C6.59876 3.90309 6.79868 4.02306 6.85962 4.2984C6.94137 4.67059 7.01123 5.04639 7.06623 5.42364C7.10636 5.69754 6.94806 5.88834 6.67234 5.93603C4.96152 6.23162 3.2507 6.52648 1.53914 6.81989C1.18315 6.8806 0.980264 6.73461 0.917837 6.38844C0.623534 4.76382 0.328489 3.1392 0.0327003 1.51458C0.0289843 1.49434 0.0111478 1.477 0 1.45821C0 1.36642 0 1.27536 0 1.1843Z" fill="#4EA0B1"/>
</svg>
